<svg width="1124" height="105" viewBox="0 0 1124 105" fill="none" xmlns="http://www.w3.org/2000/svg">
<mask id="path-1-outside-1_954_223" maskUnits="userSpaceOnUse" x="-2" y="-2" width="1129" height="109" fill="black">
<rect fill="white" x="-2" y="-2" width="1129" height="109"/>
<path d="M91.656 87.016L84.168 79.672C74.52 88.888 65.448 94.216 51.624 94.216C29.448 94.216 12.6 75.928 12.6 52.456C12.6 28.984 29.304 10.984 51.624 10.984C65.304 10.984 74.808 16.744 83.304 24.808L91.08 16.456C81 6.95199 70.056 0.471998 51.768 0.471998C22.104 0.471998 0.792001 23.944 0.792001 52.744C0.792001 81.832 22.248 104.728 51.336 104.728C69.624 104.728 81.144 97.672 91.656 87.016ZM198.468 52.456C198.468 24.52 177.876 0.471998 147.204 0.471998C116.532 0.471998 95.652 24.808 95.652 52.744C95.652 80.68 116.244 104.728 146.916 104.728C177.588 104.728 198.468 80.392 198.468 52.456ZM186.66 52.744C186.66 75.784 170.244 94.216 147.204 94.216C124.164 94.216 107.46 75.496 107.46 52.456C107.46 29.416 123.876 10.984 146.916 10.984C169.956 10.984 186.66 29.704 186.66 52.744ZM287.98 82.984L224.476 2.19999H213.82V103H224.908V20.344L289.996 103H299.068V2.19999H287.98V82.984ZM388.497 57.64V103H399.873V2.19999H388.497V46.984H330.321V2.19999H318.945V103H330.321V57.64H388.497ZM492.576 2.19999H419.712V103H493.296V92.632H431.088V57.352H486.096V46.984H431.088V12.568H492.576V2.19999ZM593.94 87.016L586.452 79.672C576.804 88.888 567.732 94.216 553.908 94.216C531.732 94.216 514.884 75.928 514.884 52.456C514.884 28.984 531.588 10.984 553.908 10.984C567.588 10.984 577.092 16.744 585.588 24.808L593.364 16.456C583.284 6.95199 572.34 0.471998 554.052 0.471998C524.388 0.471998 503.076 23.944 503.076 52.744C503.076 81.832 524.532 104.728 553.62 104.728C571.908 104.728 583.428 97.672 593.94 87.016ZM606.221 2.19999V103H617.597V2.19999H606.221ZM723.583 21.352V103H734.959V2.19999H723.439L686.719 57.208L649.999 2.19999H638.479V103H649.567V21.496L686.287 75.352H686.863L723.583 21.352ZM827.719 2.19999H754.855V103H828.439V92.632H766.231V57.352H821.239V46.984H766.231V12.568H827.719V2.19999ZM916.843 82.984L853.339 2.19999H842.683V103H853.771V20.344L918.859 103H927.931V2.19999H916.843V82.984ZM985.969 12.712H1019.81V2.19999H940.609V12.712H974.449V103H985.969V12.712ZM1124.01 52.456C1124.01 24.52 1103.41 0.471998 1072.74 0.471998C1042.07 0.471998 1021.19 24.808 1021.19 52.744C1021.19 80.68 1041.78 104.728 1072.45 104.728C1103.13 104.728 1124.01 80.392 1124.01 52.456ZM1112.2 52.744C1112.2 75.784 1095.78 94.216 1072.74 94.216C1049.7 94.216 1033 75.496 1033 52.456C1033 29.416 1049.41 10.984 1072.45 10.984C1095.49 10.984 1112.2 29.704 1112.2 52.744Z"/>
</mask>
<path d="M91.656 87.016L93.0798 88.4206L94.4885 86.9926L93.0564 85.5881L91.656 87.016ZM84.168 79.672L85.5684 78.2441L84.1864 76.8886L82.7865 78.2258L84.168 79.672ZM83.304 24.808L81.9272 26.2586L83.3918 27.6488L84.7678 26.1708L83.304 24.808ZM91.08 16.456L92.5438 17.8188L93.8981 16.3642L92.452 15.0008L91.08 16.456ZM93.0564 85.5881L85.5684 78.2441L82.7676 81.0999L90.2556 88.4439L93.0564 85.5881ZM82.7865 78.2258C73.3666 87.2239 64.7638 92.216 51.624 92.216V96.216C66.1322 96.216 75.6734 90.5521 85.5495 81.1182L82.7865 78.2258ZM51.624 92.216C30.6859 92.216 14.6 74.9616 14.6 52.456H10.6C10.6 76.8944 28.2101 96.216 51.624 96.216V92.216ZM14.6 52.456C14.6 29.9641 30.5291 12.984 51.624 12.984V8.98399C28.0789 8.98399 10.6 28.0039 10.6 52.456H14.6ZM51.624 12.984C64.6222 12.984 73.6584 18.4103 81.9272 26.2586L84.6809 23.3574C75.9576 15.0777 65.9858 8.98399 51.624 8.98399V12.984ZM84.7678 26.1708L92.5438 17.8188L89.6162 15.0932L81.8402 23.4452L84.7678 26.1708ZM92.452 15.0008C82.094 5.23467 70.6811 -1.528 51.768 -1.528V2.472C69.4309 2.472 79.906 8.66931 89.708 17.9112L92.452 15.0008ZM51.768 -1.528C20.9124 -1.528 -1.208 22.9285 -1.208 52.744H2.792C2.792 24.9595 23.2956 2.472 51.768 2.472V-1.528ZM-1.208 52.744C-1.208 82.8619 21.0702 106.728 51.336 106.728V102.728C23.4258 102.728 2.792 80.8021 2.792 52.744H-1.208ZM51.336 106.728C70.294 106.728 82.2986 99.3494 93.0798 88.4206L90.2322 85.6114C79.9894 95.9946 68.954 102.728 51.336 102.728V106.728ZM200.468 52.456C200.468 23.5234 179.086 -1.528 147.204 -1.528V2.472C176.666 2.472 196.468 25.5166 196.468 52.456H200.468ZM147.204 -1.528C115.323 -1.528 93.652 23.8105 93.652 52.744H97.652C97.652 25.8055 117.741 2.472 147.204 2.472V-1.528ZM93.652 52.744C93.652 81.6766 115.034 106.728 146.916 106.728V102.728C117.454 102.728 97.652 79.6834 97.652 52.744H93.652ZM146.916 106.728C178.797 106.728 200.468 81.3895 200.468 52.456H196.468C196.468 79.3945 176.379 102.728 146.916 102.728V106.728ZM184.66 52.744C184.66 74.813 169.01 92.216 147.204 92.216V96.216C171.478 96.216 188.66 76.755 188.66 52.744H184.66ZM147.204 92.216C125.396 92.216 109.46 74.5236 109.46 52.456H105.46C105.46 76.4684 122.932 96.216 147.204 96.216V92.216ZM109.46 52.456C109.46 30.387 125.11 12.984 146.916 12.984V8.98399C122.642 8.98399 105.46 28.445 105.46 52.456H109.46ZM146.916 12.984C168.724 12.984 184.66 30.6764 184.66 52.744H188.66C188.66 28.7316 171.188 8.98399 146.916 8.98399V12.984ZM287.98 82.984L286.407 84.22L289.98 88.7644V82.984H287.98ZM224.476 2.19999L226.048 0.963978L225.448 0.199993H224.476V2.19999ZM213.82 2.19999V0.199993H211.82V2.19999H213.82ZM213.82 103H211.82V105H213.82V103ZM224.908 103V105H226.908V103H224.908ZM224.908 20.344L226.479 19.1067L222.908 14.5714V20.344H224.908ZM289.996 103L288.424 104.237L289.025 105H289.996V103ZM299.068 103V105H301.068V103H299.068ZM299.068 2.19999H301.068V0.199993H299.068V2.19999ZM287.98 2.19999V0.199993H285.98V2.19999H287.98ZM289.552 81.748L226.048 0.963978L222.903 3.43601L286.407 84.22L289.552 81.748ZM224.476 0.199993H213.82V4.19999H224.476V0.199993ZM211.82 2.19999V103H215.82V2.19999H211.82ZM213.82 105H224.908V101H213.82V105ZM226.908 103V20.344H222.908V103H226.908ZM223.336 21.5813L288.424 104.237L291.567 101.763L226.479 19.1067L223.336 21.5813ZM289.996 105H299.068V101H289.996V105ZM301.068 103V2.19999H297.068V103H301.068ZM299.068 0.199993H287.98V4.19999H299.068V0.199993ZM285.98 2.19999V82.984H289.98V2.19999H285.98ZM388.497 57.64H390.497V55.64H388.497V57.64ZM388.497 103H386.497V105H388.497V103ZM399.873 103V105H401.873V103H399.873ZM399.873 2.19999H401.873V0.199993H399.873V2.19999ZM388.497 2.19999V0.199993H386.497V2.19999H388.497ZM388.497 46.984V48.984H390.497V46.984H388.497ZM330.321 46.984H328.321V48.984H330.321V46.984ZM330.321 2.19999H332.321V0.199993H330.321V2.19999ZM318.945 2.19999V0.199993H316.945V2.19999H318.945ZM318.945 103H316.945V105H318.945V103ZM330.321 103V105H332.321V103H330.321ZM330.321 57.64V55.64H328.321V57.64H330.321ZM386.497 57.64V103H390.497V57.64H386.497ZM388.497 105H399.873V101H388.497V105ZM401.873 103V2.19999H397.873V103H401.873ZM399.873 0.199993H388.497V4.19999H399.873V0.199993ZM386.497 2.19999V46.984H390.497V2.19999H386.497ZM388.497 44.984H330.321V48.984H388.497V44.984ZM332.321 46.984V2.19999H328.321V46.984H332.321ZM330.321 0.199993H318.945V4.19999H330.321V0.199993ZM316.945 2.19999V103H320.945V2.19999H316.945ZM318.945 105H330.321V101H318.945V105ZM332.321 103V57.64H328.321V103H332.321ZM330.321 59.64H388.497V55.64H330.321V59.64ZM492.576 2.19999H494.576V0.199993H492.576V2.19999ZM419.712 2.19999V0.199993H417.712V2.19999H419.712ZM419.712 103H417.712V105H419.712V103ZM493.296 103V105H495.296V103H493.296ZM493.296 92.632H495.296V90.632H493.296V92.632ZM431.088 92.632H429.088V94.632H431.088V92.632ZM431.088 57.352V55.352H429.088V57.352H431.088ZM486.096 57.352V59.352H488.096V57.352H486.096ZM486.096 46.984H488.096V44.984H486.096V46.984ZM431.088 46.984H429.088V48.984H431.088V46.984ZM431.088 12.568V10.568H429.088V12.568H431.088ZM492.576 12.568V14.568H494.576V12.568H492.576ZM492.576 0.199993H419.712V4.19999H492.576V0.199993ZM417.712 2.19999V103H421.712V2.19999H417.712ZM419.712 105H493.296V101H419.712V105ZM495.296 103V92.632H491.296V103H495.296ZM493.296 90.632H431.088V94.632H493.296V90.632ZM433.088 92.632V57.352H429.088V92.632H433.088ZM431.088 59.352H486.096V55.352H431.088V59.352ZM488.096 57.352V46.984H484.096V57.352H488.096ZM486.096 44.984H431.088V48.984H486.096V44.984ZM433.088 46.984V12.568H429.088V46.984H433.088ZM431.088 14.568H492.576V10.568H431.088V14.568ZM494.576 12.568V2.19999H490.576V12.568H494.576ZM593.94 87.016L595.364 88.4206L596.773 86.9926L595.341 85.5881L593.94 87.016ZM586.452 79.672L587.853 78.2441L586.471 76.8886L585.071 78.2258L586.452 79.672ZM585.588 24.808L584.211 26.2586L585.676 27.6488L587.052 26.1708L585.588 24.808ZM593.364 16.456L594.828 17.8188L596.182 16.3642L594.736 15.0008L593.364 16.456ZM595.341 85.5881L587.853 78.2441L585.052 81.0999L592.54 88.4439L595.341 85.5881ZM585.071 78.2258C575.651 87.2239 567.048 92.216 553.908 92.216V96.216C568.417 96.216 577.958 90.5521 587.834 81.1182L585.071 78.2258ZM553.908 92.216C532.97 92.216 516.884 74.9616 516.884 52.456H512.884C512.884 76.8944 530.494 96.216 553.908 96.216V92.216ZM516.884 52.456C516.884 29.9641 532.813 12.984 553.908 12.984V8.98399C530.363 8.98399 512.884 28.0039 512.884 52.456H516.884ZM553.908 12.984C566.907 12.984 575.943 18.4103 584.211 26.2586L586.965 23.3574C578.242 15.0777 568.27 8.98399 553.908 8.98399V12.984ZM587.052 26.1708L594.828 17.8188L591.901 15.0932L584.125 23.4452L587.052 26.1708ZM594.736 15.0008C584.378 5.23467 572.965 -1.528 554.052 -1.528V2.472C571.715 2.472 582.19 8.66931 591.992 17.9112L594.736 15.0008ZM554.052 -1.528C523.197 -1.528 501.076 22.9285 501.076 52.744H505.076C505.076 24.9595 525.58 2.472 554.052 2.472V-1.528ZM501.076 52.744C501.076 82.8619 523.355 106.728 553.62 106.728V102.728C525.71 102.728 505.076 80.8021 505.076 52.744H501.076ZM553.62 106.728C572.578 106.728 584.583 99.3494 595.364 88.4206L592.517 85.6114C582.274 95.9946 571.238 102.728 553.62 102.728V106.728ZM606.221 2.19999V0.199993H604.221V2.19999H606.221ZM606.221 103H604.221V105H606.221V103ZM617.597 103V105H619.597V103H617.597ZM617.597 2.19999H619.597V0.199993H617.597V2.19999ZM604.221 2.19999V103H608.221V2.19999H604.221ZM606.221 105H617.597V101H606.221V105ZM619.597 103V2.19999H615.597V103H619.597ZM617.597 0.199993H606.221V4.19999H617.597V0.199993ZM723.583 21.352H725.583V14.8541L721.929 20.2274L723.583 21.352ZM723.583 103H721.583V105H723.583V103ZM734.959 103V105H736.959V103H734.959ZM734.959 2.19999H736.959V0.199993H734.959V2.19999ZM723.439 2.19999V0.199993H722.37L721.776 1.08959L723.439 2.19999ZM686.719 57.208L685.056 58.3184L686.719 60.8103L688.383 58.3184L686.719 57.208ZM649.999 2.19999L651.663 1.08959L651.069 0.199993H649.999V2.19999ZM638.479 2.19999V0.199993H636.479V2.19999H638.479ZM638.479 103H636.479V105H638.479V103ZM649.567 103V105H651.567V103H649.567ZM649.567 21.496L651.22 20.3693L647.567 15.0124V21.496H649.567ZM686.287 75.352L684.635 76.4787L685.23 77.352H686.287V75.352ZM686.863 75.352V77.352H687.922L688.517 76.4766L686.863 75.352ZM721.583 21.352V103H725.583V21.352H721.583ZM723.583 105H734.959V101H723.583V105ZM736.959 103V2.19999H732.959V103H736.959ZM734.959 0.199993H723.439V4.19999H734.959V0.199993ZM721.776 1.08959L685.056 56.0976L688.383 58.3184L725.103 3.3104L721.776 1.08959ZM688.383 56.0976L651.663 1.08959L648.336 3.3104L685.056 58.3184L688.383 56.0976ZM649.999 0.199993H638.479V4.19999H649.999V0.199993ZM636.479 2.19999V103H640.479V2.19999H636.479ZM638.479 105H649.567V101H638.479V105ZM651.567 103V21.496H647.567V103H651.567ZM647.915 22.6227L684.635 76.4787L687.94 74.2253L651.22 20.3693L647.915 22.6227ZM686.287 77.352H686.863V73.352H686.287V77.352ZM688.517 76.4766L725.237 22.4766L721.929 20.2274L685.209 74.2274L688.517 76.4766ZM827.719 2.19999H829.719V0.199993H827.719V2.19999ZM754.855 2.19999V0.199993H752.855V2.19999H754.855ZM754.855 103H752.855V105H754.855V103ZM828.439 103V105H830.439V103H828.439ZM828.439 92.632H830.439V90.632H828.439V92.632ZM766.231 92.632H764.231V94.632H766.231V92.632ZM766.231 57.352V55.352H764.231V57.352H766.231ZM821.239 57.352V59.352H823.239V57.352H821.239ZM821.239 46.984H823.239V44.984H821.239V46.984ZM766.231 46.984H764.231V48.984H766.231V46.984ZM766.231 12.568V10.568H764.231V12.568H766.231ZM827.719 12.568V14.568H829.719V12.568H827.719ZM827.719 0.199993H754.855V4.19999H827.719V0.199993ZM752.855 2.19999V103H756.855V2.19999H752.855ZM754.855 105H828.439V101H754.855V105ZM830.439 103V92.632H826.439V103H830.439ZM828.439 90.632H766.231V94.632H828.439V90.632ZM768.231 92.632V57.352H764.231V92.632H768.231ZM766.231 59.352H821.239V55.352H766.231V59.352ZM823.239 57.352V46.984H819.239V57.352H823.239ZM821.239 44.984H766.231V48.984H821.239V44.984ZM768.231 46.984V12.568H764.231V46.984H768.231ZM766.231 14.568H827.719V10.568H766.231V14.568ZM829.719 12.568V2.19999H825.719V12.568H829.719ZM916.844 82.984L915.271 84.22L918.844 88.7644V82.984H916.844ZM853.339 2.19999L854.912 0.963978L854.311 0.199993H853.339V2.19999ZM842.683 2.19999V0.199993H840.683V2.19999H842.683ZM842.683 103H840.683V105H842.683V103ZM853.771 103V105H855.771V103H853.771ZM853.771 20.344L855.343 19.1067L851.771 14.5714V20.344H853.771ZM918.859 103L917.288 104.237L917.889 105H918.859V103ZM927.932 103V105H929.932V103H927.932ZM927.932 2.19999H929.932V0.199993H927.932V2.19999ZM916.844 2.19999V0.199993H914.844V2.19999H916.844ZM918.416 81.748L854.912 0.963978L851.767 3.43601L915.271 84.22L918.416 81.748ZM853.339 0.199993H842.683V4.19999H853.339V0.199993ZM840.683 2.19999V103H844.683V2.19999H840.683ZM842.683 105H853.771V101H842.683V105ZM855.771 103V20.344H851.771V103H855.771ZM852.2 21.5813L917.288 104.237L920.431 101.763L855.343 19.1067L852.2 21.5813ZM918.859 105H927.932V101H918.859V105ZM929.932 103V2.19999H925.932V103H929.932ZM927.932 0.199993H916.844V4.19999H927.932V0.199993ZM914.844 2.19999V82.984H918.844V2.19999H914.844ZM985.969 12.712V10.712H983.969V12.712H985.969ZM1019.81 12.712V14.712H1021.81V12.712H1019.81ZM1019.81 2.19999H1021.81V0.199993H1019.81V2.19999ZM940.609 2.19999V0.199993H938.609V2.19999H940.609ZM940.609 12.712H938.609V14.712H940.609V12.712ZM974.449 12.712H976.449V10.712H974.449V12.712ZM974.449 103H972.449V105H974.449V103ZM985.969 103V105H987.969V103H985.969ZM985.969 14.712H1019.81V10.712H985.969V14.712ZM1021.81 12.712V2.19999H1017.81V12.712H1021.81ZM1019.81 0.199993H940.609V4.19999H1019.81V0.199993ZM938.609 2.19999V12.712H942.609V2.19999H938.609ZM940.609 14.712H974.449V10.712H940.609V14.712ZM972.449 12.712V103H976.449V12.712H972.449ZM974.449 105H985.969V101H974.449V105ZM987.969 103V12.712H983.969V103H987.969ZM1126.01 52.456C1126.01 23.5234 1104.62 -1.528 1072.74 -1.528V2.472C1102.2 2.472 1122.01 25.5166 1122.01 52.456H1126.01ZM1072.74 -1.528C1040.86 -1.528 1019.19 23.8105 1019.19 52.744H1023.19C1023.19 25.8055 1043.28 2.472 1072.74 2.472V-1.528ZM1019.19 52.744C1019.19 81.6766 1040.57 106.728 1072.45 106.728V102.728C1042.99 102.728 1023.19 79.6834 1023.19 52.744H1019.19ZM1072.45 106.728C1104.33 106.728 1126.01 81.3895 1126.01 52.456H1122.01C1122.01 79.3945 1101.92 102.728 1072.45 102.728V106.728ZM1110.2 52.744C1110.2 74.813 1094.55 92.216 1072.74 92.216V96.216C1097.02 96.216 1114.2 76.755 1114.2 52.744H1110.2ZM1072.74 92.216C1050.93 92.216 1035 74.5236 1035 52.456H1031C1031 76.4684 1048.47 96.216 1072.74 96.216V92.216ZM1035 52.456C1035 30.387 1050.65 12.984 1072.45 12.984V8.98399C1048.18 8.98399 1031 28.445 1031 52.456H1035ZM1072.45 12.984C1094.26 12.984 1110.2 30.6764 1110.2 52.744H1114.2C1114.2 28.7316 1096.73 8.98399 1072.45 8.98399V12.984Z" fill="#454C4F" mask="url(#path-1-outside-1_954_223)"/>
</svg>
