<svg width="1920" height="133" viewBox="0 0 1920 133" fill="none" xmlns="http://www.w3.org/2000/svg">
<mask id="path-1-outside-1_954_221" maskUnits="userSpaceOnUse" x="-259" y="-3" width="2444" height="138" fill="black">
<rect fill="white" x="-259" y="-3" width="2444" height="138"/>
<path d="M-255.68 131H-244.448L-222.56 49.496L-200.528 103.352H-199.952L-148.832 49.352L-170.72 131H-159.2L-132.128 30.2H-144.8L-196.208 85.208L-217.952 30.2H-228.608L-255.68 131ZM-93.5157 132.584C-80.9877 132.584 -70.3317 128.264 -62.1237 120.056C-55.0677 113 -49.7397 103.064 -46.2837 90.248L-30.1557 30.2H-41.5317L-57.2277 88.232C-60.1077 99.32 -64.8597 107.528 -70.0437 112.856C-76.3797 119.048 -84.1557 122.072 -92.5077 122.072C-110.364 122.072 -118.86 112.136 -118.86 99.032C-118.86 94.712 -118.284 90.68 -117.42 87.656L-102.156 30.2H-113.676L-128.076 84.632C-129.516 89.816 -130.236 94.856 -130.236 100.328C-130.236 119.192 -117.564 132.584 -93.5157 132.584ZM-37.6707 131H-26.2947L0.777254 30.2H-10.5987L-37.6707 131ZM18.4915 131H29.8675L54.0595 40.712H88.0435L90.9235 30.2H11.5795L8.6995 40.712H42.6835L18.4915 131ZM123.164 132.872C156.428 132.872 181.916 103.352 181.916 72.104C181.916 47.624 163.772 28.472 137.708 28.472C104.444 28.472 78.9558 57.992 78.9558 89.096C78.9558 113.72 97.0998 132.872 123.164 132.872ZM123.884 122.36C103.724 122.36 90.9078 107.816 90.9078 88.808C90.9078 63.752 110.636 38.984 136.988 38.984C157.148 38.984 169.964 53.528 169.964 72.536C169.964 97.592 150.236 122.36 123.884 122.36ZM174.825 131H188.073L192.105 115.88H179.001L174.825 131ZM240.012 131H251.244L273.132 49.496L295.164 103.352H295.74L346.86 49.352L324.972 131H336.492L363.564 30.2H350.892L299.484 85.208L277.74 30.2H267.084L240.012 131ZM402.176 132.584C414.704 132.584 425.36 128.264 433.568 120.056C440.624 113 445.952 103.064 449.408 90.248L465.536 30.2H454.16L438.464 88.232C435.584 99.32 430.832 107.528 425.648 112.856C419.312 119.048 411.536 122.072 403.184 122.072C385.328 122.072 376.832 112.136 376.832 99.032C376.832 94.712 377.408 90.68 378.272 87.656L393.536 30.2H382.016L367.616 84.632C366.176 89.816 365.456 94.856 365.456 100.328C365.456 119.192 378.128 132.584 402.176 132.584ZM458.021 131H469.397L496.469 30.2H485.093L458.021 131ZM514.183 131H525.559L549.751 40.712H583.735L586.615 30.2H507.271L504.391 40.712H538.375L514.183 131ZM618.856 132.872C652.12 132.872 677.608 103.352 677.608 72.104C677.608 47.624 659.464 28.472 633.4 28.472C600.136 28.472 574.648 57.992 574.648 89.096C574.648 113.72 592.792 132.872 618.856 132.872ZM619.576 122.36C599.416 122.36 586.6 107.816 586.6 88.808C586.6 63.752 606.328 38.984 632.68 38.984C652.84 38.984 665.656 53.528 665.656 72.536C665.656 97.592 645.928 122.36 619.576 122.36ZM703.326 131H715.854L734.862 104.36H789.87L794.478 131H806.142L787.422 29.48H776.478L703.326 131ZM742.062 94.136L778.926 42.44L787.998 94.136H742.062ZM814.313 131H882.425L885.305 120.488H828.569L852.761 30.2H841.385L814.313 131ZM893.142 131H966.006L968.742 120.632H907.254L916.758 85.352H970.902L973.782 74.984H919.494L928.71 40.568H989.478L992.358 30.2H920.214L893.142 131ZM947.142 21.272H957.51L977.958 5.71999L966.438 0.391991L947.142 21.272ZM978.58 131H989.812L1011.7 49.496L1033.73 103.352H1034.31L1085.43 49.352L1063.54 131H1075.06L1102.13 30.2H1089.46L1038.05 85.208L1016.31 30.2H1005.65L978.58 131ZM1129.63 131H1163.76C1185.21 131 1203.36 123.944 1215.45 111.848C1225.68 101.48 1231.29 87.944 1231.29 72.536C1231.29 60.296 1227.55 50.792 1220.35 43.592C1211.56 34.952 1197.74 30.2 1181.04 30.2H1156.7L1129.63 131ZM1143.88 120.488L1165.34 40.712H1180.32C1193.71 40.712 1204.36 44.312 1210.99 50.936C1216.46 56.264 1219.48 63.752 1219.48 73.256C1219.48 85.64 1214.88 96.584 1206.81 104.648C1196.59 114.872 1182.04 120.488 1165.2 120.488H1143.88ZM1284.92 132.872C1318.19 132.872 1343.68 103.352 1343.68 72.104C1343.68 47.624 1325.53 28.472 1299.47 28.472C1266.2 28.472 1240.72 57.992 1240.72 89.096C1240.72 113.72 1258.86 132.872 1284.92 132.872ZM1285.64 122.36C1265.48 122.36 1252.67 107.816 1252.67 88.808C1252.67 63.752 1272.4 38.984 1298.75 38.984C1318.91 38.984 1331.72 53.528 1331.72 72.536C1331.72 97.592 1312 122.36 1285.64 122.36ZM1382.55 132.44C1404.01 132.44 1420.71 119.624 1420.71 101.912C1420.71 88.952 1411.93 81.896 1394.65 75.272C1378.81 69.08 1372.33 64.904 1372.33 56.696C1372.33 47.48 1381.4 38.984 1396.52 38.984C1408.33 38.984 1417.54 43.448 1424.89 51.512L1433.24 44.024C1425.61 35.096 1413.22 28.76 1397.53 28.76C1375.78 28.76 1360.37 41.288 1360.37 57.992C1360.37 71.096 1369.45 77.576 1388.02 84.92C1403.57 90.968 1408.76 95.576 1408.76 103.352C1408.76 114.296 1397.81 122.216 1383.27 122.216C1368.44 122.216 1358.5 116.888 1350.01 106.52L1341.37 113.288C1350.01 125.24 1363.97 132.44 1382.55 132.44ZM1485.44 131H1496.82L1521.01 40.712H1554.99L1557.87 30.2H1478.53L1475.65 40.712H1509.63L1485.44 131ZM1587.28 132.584C1599.81 132.584 1610.46 128.264 1618.67 120.056C1625.73 113 1631.06 103.064 1634.51 90.248L1650.64 30.2H1639.26L1623.57 88.232C1620.69 99.32 1615.94 107.528 1610.75 112.856C1604.42 119.048 1596.64 122.072 1588.29 122.072C1570.43 122.072 1561.94 112.136 1561.94 99.032C1561.94 94.712 1562.51 90.68 1563.38 87.656L1578.64 30.2H1567.12L1552.72 84.632C1551.28 89.816 1550.56 94.856 1550.56 100.328C1550.56 119.192 1563.23 132.584 1587.28 132.584ZM1666.02 131H1677.4L1701.59 40.712H1735.57L1738.45 30.2H1659.11L1656.23 40.712H1690.21L1666.02 131ZM1770.69 132.872C1803.96 132.872 1829.44 103.352 1829.44 72.104C1829.44 47.624 1811.3 28.472 1785.24 28.472C1751.97 28.472 1726.48 57.992 1726.48 89.096C1726.48 113.72 1744.63 132.872 1770.69 132.872ZM1771.41 122.36C1751.25 122.36 1738.44 107.816 1738.44 88.808C1738.44 63.752 1758.16 38.984 1784.52 38.984C1804.68 38.984 1817.49 53.528 1817.49 72.536C1817.49 97.592 1797.76 122.36 1771.41 122.36ZM1830.71 131H1842.09L1852.6 91.832H1879.96L1899.83 131H1912.94L1892.2 90.68C1906.89 88.376 1917.83 82.04 1922.58 72.248C1926.76 65.912 1928.34 58.856 1927.05 51.368C1925.18 37.976 1913.37 30.2 1894.07 30.2H1857.78L1830.71 131ZM1855.34 81.608L1866.42 40.712H1893.5C1908.18 40.712 1915.82 46.328 1916.54 55.544C1917.11 60.872 1915.67 65.48 1912.5 69.656C1908.04 77 1897.38 81.608 1882.7 81.608H1855.34ZM1926.3 131H1937.67L1964.75 30.2H1953.37L1926.3 131ZM1948.48 131H1961L1980.01 104.36H2035.02L2039.63 131H2051.29L2032.57 29.48H2021.63L1948.48 131ZM1987.21 94.136L2024.08 42.44L2033.15 94.136H1987.21ZM2060.47 131H2071.85L2098.92 30.2H2087.54L2060.47 131ZM2131.32 132.44C2152.78 132.44 2169.48 119.624 2169.48 101.912C2169.48 88.952 2160.7 81.896 2143.42 75.272C2127.58 69.08 2121.1 64.904 2121.1 56.696C2121.1 47.48 2130.17 38.984 2145.29 38.984C2157.1 38.984 2166.31 43.448 2173.66 51.512L2182.01 44.024C2174.38 35.096 2161.99 28.76 2146.3 28.76C2124.55 28.76 2109.15 41.288 2109.15 57.992C2109.15 71.096 2118.22 77.576 2136.79 84.92C2152.35 90.968 2157.53 95.576 2157.53 103.352C2157.53 114.296 2146.59 122.216 2132.04 122.216C2117.21 122.216 2107.27 116.888 2098.78 106.52L2090.14 113.288C2098.78 125.24 2112.75 132.44 2131.32 132.44Z"/>
</mask>
<path d="M-255.68 131L-257.612 130.481L-258.288 133H-255.68V131ZM-244.448 131V133H-242.914L-242.516 131.519L-244.448 131ZM-222.56 49.496L-220.709 48.7387L-222.954 43.2512L-224.492 48.9773L-222.56 49.496ZM-200.528 103.352L-202.379 104.109L-201.871 105.352H-200.528V103.352ZM-199.952 103.352V105.352H-199.091L-198.5 104.727L-199.952 103.352ZM-148.832 49.352L-146.9 49.8699L-150.284 47.977L-148.832 49.352ZM-170.72 131L-172.652 130.482L-173.327 133H-170.72V131ZM-159.2 131V133H-157.666L-157.268 131.519L-159.2 131ZM-132.128 30.2L-130.196 30.7188L-129.52 28.2H-132.128V30.2ZM-144.8 30.2V28.2H-145.668L-146.261 28.8344L-144.8 30.2ZM-196.208 85.208L-198.068 85.9432L-196.906 88.8836L-194.747 86.5736L-196.208 85.208ZM-217.952 30.2L-216.092 29.4648L-216.592 28.2H-217.952V30.2ZM-228.608 30.2V28.2H-230.142L-230.54 29.6812L-228.608 30.2ZM-255.68 133H-244.448V129H-255.68V133ZM-242.516 131.519L-220.628 50.0147L-224.492 48.9773L-246.38 130.481L-242.516 131.519ZM-224.411 50.2533L-202.379 104.109L-198.677 102.595L-220.709 48.7387L-224.411 50.2533ZM-200.528 105.352H-199.952V101.352H-200.528V105.352ZM-198.5 104.727L-147.38 50.7269L-150.284 47.977L-201.404 101.977L-198.5 104.727ZM-150.764 48.8341L-172.652 130.482L-168.788 131.518L-146.9 49.8699L-150.764 48.8341ZM-170.72 133H-159.2V129H-170.72V133ZM-157.268 131.519L-130.196 30.7188L-134.06 29.6812L-161.132 130.481L-157.268 131.519ZM-132.128 28.2H-144.8V32.2H-132.128V28.2ZM-146.261 28.8344L-197.669 83.8424L-194.747 86.5736L-143.339 31.5656L-146.261 28.8344ZM-194.348 84.4728L-216.092 29.4648L-219.812 30.9352L-198.068 85.9432L-194.348 84.4728ZM-217.952 28.2H-228.608V32.2H-217.952V28.2ZM-230.54 29.6812L-257.612 130.481L-253.748 131.519L-226.676 30.7188L-230.54 29.6812ZM-62.1237 120.056L-63.538 118.642L-62.1237 120.056ZM-46.2838 90.248L-44.3527 90.7687L-44.3522 90.7668L-46.2838 90.248ZM-30.1557 30.2L-28.2242 30.7188L-27.5477 28.2H-30.1557V30.2ZM-41.5318 30.2V28.2H-43.0627L-43.4624 29.6778L-41.5318 30.2ZM-57.2277 88.232L-59.1584 87.7098L-59.161 87.7195L-59.1635 87.7292L-57.2277 88.232ZM-70.0437 112.856L-68.6459 114.286L-68.6279 114.269L-68.6103 114.251L-70.0437 112.856ZM-117.42 87.656L-115.497 88.2054L-115.492 88.1875L-115.487 88.1695L-117.42 87.656ZM-102.156 30.2L-100.223 30.7135L-99.5551 28.2H-102.156V30.2ZM-113.676 30.2V28.2H-115.215L-115.609 29.6885L-113.676 30.2ZM-128.076 84.632L-126.149 85.1673L-126.145 85.1554L-126.142 85.1435L-128.076 84.632ZM-93.5157 134.584C-80.4913 134.584 -69.3159 130.077 -60.7095 121.47L-63.538 118.642C-71.3475 126.451 -81.4842 130.584 -93.5157 130.584V134.584ZM-60.7095 121.47C-53.3422 114.103 -47.873 103.823 -44.3527 90.7687L-48.2148 89.7273C-51.6064 102.305 -56.7933 111.897 -63.538 118.642L-60.7095 121.47ZM-44.3522 90.7668L-28.2242 30.7188L-32.0873 29.6812L-48.2153 89.7292L-44.3522 90.7668ZM-30.1557 28.2H-41.5318V32.2H-30.1557V28.2ZM-43.4624 29.6778L-59.1584 87.7098L-55.2971 88.7542L-39.6011 30.7222L-43.4624 29.6778ZM-59.1635 87.7292C-61.9719 98.5413 -66.575 106.423 -71.4772 111.461L-68.6103 114.251C-63.1445 108.633 -58.2436 100.099 -55.292 88.7348L-59.1635 87.7292ZM-71.4416 111.426C-77.3991 117.248 -84.6714 120.072 -92.5078 120.072V124.072C-83.64 124.072 -75.3604 120.848 -68.6459 114.286L-71.4416 111.426ZM-92.5078 120.072C-101.07 120.072 -107.114 117.695 -111.005 114.013C-114.888 110.339 -116.86 105.145 -116.86 99.032H-120.86C-120.86 106.023 -118.584 112.349 -113.754 116.919C-108.933 121.481 -101.801 124.072 -92.5078 124.072V120.072ZM-116.86 99.032C-116.86 94.8727 -116.303 91.0281 -115.497 88.2054L-119.343 87.1066C-120.264 90.3319 -120.86 94.5513 -120.86 99.032H-116.86ZM-115.487 88.1695L-100.223 30.7135L-104.089 29.6865L-119.353 87.1425L-115.487 88.1695ZM-102.156 28.2H-113.676V32.2H-102.156V28.2ZM-115.609 29.6885L-130.009 84.1205L-126.142 85.1435L-111.742 30.7115L-115.609 29.6885ZM-130.003 84.0967C-131.489 89.4484 -132.236 94.6683 -132.236 100.328H-128.236C-128.236 95.0437 -127.542 90.1836 -126.149 85.1673L-130.003 84.0967ZM-132.236 100.328C-132.236 110.222 -128.9 118.854 -122.251 124.999C-115.617 131.13 -105.904 134.584 -93.5157 134.584V130.584C-105.176 130.584 -113.823 127.342 -119.536 122.061C-125.235 116.794 -128.236 109.298 -128.236 100.328H-132.236ZM-37.6707 131L-39.6023 130.481L-40.2788 133H-37.6707V131ZM-26.2948 131V133H-24.761L-24.3632 131.519L-26.2948 131ZM0.777252 30.2L2.7088 30.7188L3.38528 28.2H0.777252V30.2ZM-10.5988 30.2V28.2H-12.1325L-12.5303 29.6812L-10.5988 30.2ZM-37.6707 133H-26.2948V129H-37.6707V133ZM-24.3632 131.519L2.7088 30.7188L-1.1543 29.6812L-28.2263 130.481L-24.3632 131.519ZM0.777252 28.2H-10.5988V32.2H0.777252V28.2ZM-12.5303 29.6812L-39.6023 130.481L-35.7392 131.519L-8.66719 30.7188L-12.5303 29.6812ZM18.4915 131L16.5597 130.482L15.8851 133H18.4915V131ZM29.8675 131V133H31.4022L31.7993 131.518L29.8675 131ZM54.0595 40.712V38.712H52.5248L52.1277 40.1944L54.0595 40.712ZM88.0435 40.712V42.712H89.5693L89.9724 41.2405L88.0435 40.712ZM90.9235 30.2L92.8524 30.7285L93.5452 28.2H90.9235V30.2ZM11.5795 30.2V28.2H10.0537L9.65057 29.6715L11.5795 30.2ZM8.69949 40.712L6.7706 40.1835L6.07785 42.712H8.69949V40.712ZM42.6835 40.712L44.6154 41.2296L45.2899 38.712H42.6835V40.712ZM18.4915 133H29.8675V129H18.4915V133ZM31.7993 131.518L55.9914 41.2296L52.1277 40.1944L27.9356 130.482L31.7993 131.518ZM54.0595 42.712H88.0435V38.712H54.0595V42.712ZM89.9724 41.2405L92.8524 30.7285L88.9946 29.6715L86.1146 40.1835L89.9724 41.2405ZM90.9235 28.2H11.5795V32.2H90.9235V28.2ZM9.65057 29.6715L6.7706 40.1835L10.6284 41.2405L13.5084 30.7285L9.65057 29.6715ZM8.69949 42.712H42.6835V38.712H8.69949V42.712ZM40.7516 40.1944L16.5597 130.482L20.4234 131.518L44.6154 41.2296L40.7516 40.1944ZM123.164 134.872C157.661 134.872 183.916 104.324 183.916 72.104H179.916C179.916 102.38 155.195 130.872 123.164 130.872V134.872ZM183.916 72.104C183.916 46.5325 164.889 26.472 137.708 26.472V30.472C162.654 30.472 179.916 48.7155 179.916 72.104H183.916ZM137.708 26.472C103.214 26.472 76.9557 57.0172 76.9557 89.096H80.9557C80.9557 58.9668 105.674 30.472 137.708 30.472V26.472ZM76.9557 89.096C76.9557 114.807 95.9779 134.872 123.164 134.872V130.872C98.2216 130.872 80.9557 112.633 80.9557 89.096H76.9557ZM123.884 120.36C114.308 120.36 106.602 116.918 101.284 111.333C95.9549 105.735 92.9077 97.8606 92.9077 88.808H88.9077C88.9077 98.7634 92.2686 107.665 98.3873 114.091C104.518 120.53 113.3 124.36 123.884 124.36V120.36ZM92.9077 88.808C92.9077 64.6137 111.968 40.984 136.988 40.984V36.984C109.303 36.984 88.9077 62.8903 88.9077 88.808H92.9077ZM136.988 40.984C146.564 40.984 154.27 44.4259 159.587 50.0111C164.917 55.6086 167.964 63.4834 167.964 72.536H171.964C171.964 62.5806 168.603 53.6794 162.484 47.2529C156.354 40.8141 147.572 36.984 136.988 36.984V40.984ZM167.964 72.536C167.964 96.7303 148.903 120.36 123.884 120.36V124.36C151.568 124.36 171.964 98.4537 171.964 72.536H167.964ZM174.825 131L172.897 130.468L172.198 133H174.825V131ZM188.073 131V133H189.609L190.005 131.515L188.073 131ZM192.105 115.88L194.037 116.395L194.708 113.88H192.105V115.88ZM179.001 115.88V113.88H177.478L177.073 115.348L179.001 115.88ZM174.825 133H188.073V129H174.825V133ZM190.005 131.515L194.037 116.395L190.172 115.365L186.14 130.485L190.005 131.515ZM192.105 113.88H179.001V117.88H192.105V113.88ZM177.073 115.348L172.897 130.468L176.753 131.532L180.929 116.412L177.073 115.348ZM240.012 131L238.08 130.481L237.404 133H240.012V131ZM251.244 131V133H252.778L253.175 131.519L251.244 131ZM273.132 49.496L274.983 48.7387L272.738 43.2512L271.2 48.9773L273.132 49.496ZM295.164 103.352L293.313 104.109L293.821 105.352H295.164V103.352ZM295.74 103.352V105.352H296.601L297.192 104.727L295.74 103.352ZM346.86 49.352L348.792 49.8699L345.407 47.977L346.86 49.352ZM324.972 131L323.04 130.482L322.365 133H324.972V131ZM336.492 131V133H338.026L338.423 131.519L336.492 131ZM363.564 30.2L365.495 30.7188L366.172 28.2H363.564V30.2ZM350.892 30.2V28.2H350.024L349.431 28.8344L350.892 30.2ZM299.484 85.208L297.624 85.9432L298.786 88.8836L300.945 86.5736L299.484 85.208ZM277.74 30.2L279.6 29.4648L279.1 28.2H277.74V30.2ZM267.084 30.2V28.2H265.55L265.152 29.6812L267.084 30.2ZM240.012 133H251.244V129H240.012V133ZM253.175 131.519L275.063 50.0147L271.2 48.9773L249.312 130.481L253.175 131.519ZM271.281 50.2533L293.313 104.109L297.015 102.595L274.983 48.7387L271.281 50.2533ZM295.164 105.352H295.74V101.352H295.164V105.352ZM297.192 104.727L348.312 50.7269L345.407 47.977L294.287 101.977L297.192 104.727ZM344.928 48.8341L323.04 130.482L326.904 131.518L348.792 49.8699L344.928 48.8341ZM324.972 133H336.492V129H324.972V133ZM338.423 131.519L365.495 30.7188L361.632 29.6812L334.56 130.481L338.423 131.519ZM363.564 28.2H350.892V32.2H363.564V28.2ZM349.431 28.8344L298.023 83.8424L300.945 86.5736L352.353 31.5656L349.431 28.8344ZM301.344 84.4728L279.6 29.4648L275.88 30.9352L297.624 85.9432L301.344 84.4728ZM277.74 28.2H267.084V32.2H277.74V28.2ZM265.152 29.6812L238.08 130.481L241.943 131.519L269.015 30.7188L265.152 29.6812ZM433.568 120.056L432.154 118.642L433.568 120.056ZM449.408 90.248L451.339 90.7687L451.34 90.7668L449.408 90.248ZM465.536 30.2L467.468 30.7188L468.144 28.2H465.536V30.2ZM454.16 30.2V28.2H452.629L452.229 29.6778L454.16 30.2ZM438.464 88.232L436.534 87.7098L436.531 87.7195L436.528 87.7292L438.464 88.232ZM425.648 112.856L427.046 114.286L427.064 114.269L427.082 114.251L425.648 112.856ZM378.272 87.656L380.195 88.2054L380.2 88.1875L380.205 88.1695L378.272 87.656ZM393.536 30.2L395.469 30.7135L396.137 28.2H393.536V30.2ZM382.016 30.2V28.2H380.476L380.083 29.6885L382.016 30.2ZM367.616 84.632L369.543 85.1673L369.546 85.1554L369.55 85.1435L367.616 84.632ZM402.176 134.584C415.201 134.584 426.376 130.077 434.982 121.47L432.154 118.642C424.344 126.451 414.208 130.584 402.176 130.584V134.584ZM434.982 121.47C442.35 114.103 447.819 103.823 451.339 90.7687L447.477 89.7273C444.085 102.305 438.899 111.897 432.154 118.642L434.982 121.47ZM451.34 90.7668L467.468 30.7188L463.605 29.6812L447.477 89.7292L451.34 90.7668ZM465.536 28.2H454.16V32.2H465.536V28.2ZM452.229 29.6778L436.534 87.7098L440.395 88.7542L456.091 30.7222L452.229 29.6778ZM436.528 87.7292C433.72 98.5413 429.117 106.423 424.215 111.461L427.082 114.251C432.547 108.633 437.448 100.099 440.4 88.7348L436.528 87.7292ZM424.25 111.426C418.293 117.248 411.02 120.072 403.184 120.072V124.072C412.052 124.072 420.332 120.848 427.046 114.286L424.25 111.426ZM403.184 120.072C394.621 120.072 388.577 117.695 384.687 114.013C380.804 110.339 378.832 105.145 378.832 99.032H374.832C374.832 106.023 377.108 112.349 381.938 116.919C386.759 121.481 393.891 124.072 403.184 124.072V120.072ZM378.832 99.032C378.832 94.8727 379.389 91.0281 380.195 88.2054L376.349 87.1066C375.428 90.3319 374.832 94.5513 374.832 99.032H378.832ZM380.205 88.1695L395.469 30.7135L391.603 29.6865L376.339 87.1425L380.205 88.1695ZM393.536 28.2H382.016V32.2H393.536V28.2ZM380.083 29.6885L365.683 84.1205L369.55 85.1435L383.95 30.7115L380.083 29.6885ZM365.689 84.0967C364.203 89.4484 363.456 94.6683 363.456 100.328H367.456C367.456 95.0437 368.15 90.1836 369.543 85.1673L365.689 84.0967ZM363.456 100.328C363.456 110.222 366.792 118.854 373.441 124.999C380.075 131.13 389.788 134.584 402.176 134.584V130.584C390.516 130.584 381.869 127.342 376.156 122.061C370.457 116.794 367.456 109.298 367.456 100.328H363.456ZM458.021 131L456.09 130.481L455.413 133H458.021V131ZM469.397 131V133H470.931L471.329 131.519L469.397 131ZM496.469 30.2L498.401 30.7188L499.077 28.2H496.469V30.2ZM485.093 30.2V28.2H483.559L483.162 29.6812L485.093 30.2ZM458.021 133H469.397V129H458.021V133ZM471.329 131.519L498.401 30.7188L494.538 29.6812L467.466 130.481L471.329 131.519ZM496.469 28.2H485.093V32.2H496.469V28.2ZM483.162 29.6812L456.09 130.481L459.953 131.519L487.025 30.7188L483.162 29.6812ZM514.183 131L512.252 130.482L511.577 133H514.183V131ZM525.559 131V133H527.094L527.491 131.518L525.559 131ZM549.751 40.712V38.712H548.217L547.82 40.1944L549.751 40.712ZM583.735 40.712V42.712H585.261L585.664 41.2405L583.735 40.712ZM586.615 30.2L588.544 30.7285L589.237 28.2H586.615V30.2ZM507.271 30.2V28.2H505.746L505.342 29.6715L507.271 30.2ZM504.391 40.712L502.462 40.1835L501.77 42.712H504.391V40.712ZM538.375 40.712L540.307 41.2296L540.982 38.712H538.375V40.712ZM514.183 133H525.559V129H514.183V133ZM527.491 131.518L551.683 41.2296L547.82 40.1944L523.628 130.482L527.491 131.518ZM549.751 42.712H583.735V38.712H549.751V42.712ZM585.664 41.2405L588.544 30.7285L584.686 29.6715L581.806 40.1835L585.664 41.2405ZM586.615 28.2H507.271V32.2H586.615V28.2ZM505.342 29.6715L502.462 40.1835L506.32 41.2405L509.2 30.7285L505.342 29.6715ZM504.391 42.712H538.375V38.712H504.391V42.712ZM536.443 40.1944L512.252 130.482L516.115 131.518L540.307 41.2296L536.443 40.1944ZM618.856 134.872C653.353 134.872 679.608 104.324 679.608 72.104H675.608C675.608 102.38 650.887 130.872 618.856 130.872V134.872ZM679.608 72.104C679.608 46.5325 660.581 26.472 633.4 26.472V30.472C658.346 30.472 675.608 48.7155 675.608 72.104H679.608ZM633.4 26.472C598.906 26.472 572.648 57.0172 572.648 89.096H576.648C576.648 58.9668 601.366 30.472 633.4 30.472V26.472ZM572.648 89.096C572.648 114.807 591.67 134.872 618.856 134.872V130.872C593.914 130.872 576.648 112.633 576.648 89.096H572.648ZM619.576 120.36C610 120.36 602.294 116.918 596.976 111.333C591.647 105.735 588.6 97.8606 588.6 88.808H584.6C584.6 98.7634 587.961 107.665 594.079 114.091C600.21 120.53 608.992 124.36 619.576 124.36V120.36ZM588.6 88.808C588.6 64.6137 607.66 40.984 632.68 40.984V36.984C604.995 36.984 584.6 62.8903 584.6 88.808H588.6ZM632.68 40.984C642.256 40.984 649.962 44.4259 655.279 50.0111C660.609 55.6086 663.656 63.4834 663.656 72.536H667.656C667.656 62.5806 664.295 53.6794 658.176 47.2529C652.046 40.8141 643.264 36.984 632.68 36.984V40.984ZM663.656 72.536C663.656 96.7303 644.595 120.36 619.576 120.36V124.36C647.26 124.36 667.656 98.4537 667.656 72.536H663.656ZM703.326 131L701.704 129.831L699.42 133H703.326V131ZM715.854 131V133H716.884L717.482 132.162L715.854 131ZM734.862 104.36V102.36H733.832L733.234 103.198L734.862 104.36ZM789.87 104.36L791.841 104.019L791.554 102.36H789.87V104.36ZM794.478 131L792.508 131.341L792.795 133H794.478V131ZM806.142 131V133H808.545L808.109 130.637L806.142 131ZM787.422 29.48L789.389 29.1173L789.087 27.48H787.422V29.48ZM776.478 29.48V27.48H775.454L774.856 28.3108L776.478 29.48ZM742.062 94.136L740.434 92.9748L738.18 96.136H742.062V94.136ZM778.926 42.44L780.896 42.0943L780.071 37.3904L777.298 41.2788L778.926 42.44ZM787.998 94.136V96.136H790.38L789.968 93.7903L787.998 94.136ZM703.326 133H715.854V129H703.326V133ZM717.482 132.162L736.49 105.522L733.234 103.198L714.226 129.838L717.482 132.162ZM734.862 106.36H789.87V102.36H734.862V106.36ZM787.9 104.701L792.508 131.341L796.449 130.659L791.841 104.019L787.9 104.701ZM794.478 133H806.142V129H794.478V133ZM808.109 130.637L789.389 29.1173L785.455 29.8427L804.175 131.363L808.109 130.637ZM787.422 27.48H776.478V31.48H787.422V27.48ZM774.856 28.3108L701.704 129.831L704.949 132.169L778.101 30.6492L774.856 28.3108ZM743.691 95.2972L780.555 43.6012L777.298 41.2788L740.434 92.9748L743.691 95.2972ZM776.956 42.7857L786.028 94.4817L789.968 93.7903L780.896 42.0943L776.956 42.7857ZM787.998 92.136H742.062V96.136H787.998V92.136ZM814.313 131L812.382 130.481L811.705 133H814.313V131ZM882.425 131V133H883.951L884.354 131.528L882.425 131ZM885.305 120.488L887.234 121.016L887.927 118.488H885.305V120.488ZM828.569 120.488L826.637 119.97L825.963 122.488H828.569V120.488ZM852.761 30.2L854.693 30.7176L855.368 28.2H852.761V30.2ZM841.385 30.2V28.2H839.851L839.454 29.6812L841.385 30.2ZM814.313 133H882.425V129H814.313V133ZM884.354 131.528L887.234 121.016L883.376 119.96L880.496 130.472L884.354 131.528ZM885.305 118.488H828.569V122.488H885.305V118.488ZM830.501 121.006L854.693 30.7176L850.829 29.6824L826.637 119.97L830.501 121.006ZM852.761 28.2H841.385V32.2H852.761V28.2ZM839.454 29.6812L812.382 130.481L816.245 131.519L843.317 30.7188L839.454 29.6812ZM893.142 131L891.21 130.481L890.534 133H893.142V131ZM966.006 131V133H967.547L967.94 131.51L966.006 131ZM968.742 120.632L970.676 121.142L971.338 118.632H968.742V120.632ZM907.254 120.632L905.323 120.112L904.644 122.632H907.254V120.632ZM916.758 85.352V83.352H915.225L914.827 84.8318L916.758 85.352ZM970.902 85.352V87.352H972.422L972.829 85.8873L970.902 85.352ZM973.782 74.984L975.709 75.5193L976.413 72.984H973.782V74.984ZM919.494 74.984L917.562 74.4667L916.888 76.984H919.494V74.984ZM928.71 40.568V38.568H927.175L926.778 40.0507L928.71 40.568ZM989.478 40.568V42.568H990.998L991.405 41.1033L989.478 40.568ZM992.358 30.2L994.285 30.7353L994.989 28.2H992.358V30.2ZM920.214 30.2V28.2H918.68L918.282 29.6812L920.214 30.2ZM947.142 21.272L945.673 19.9146L942.57 23.272H947.142V21.272ZM957.51 21.272V23.272H958.184L958.721 22.8639L957.51 21.272ZM977.958 5.71999L979.169 7.31188L981.814 5.2999L978.797 3.90474L977.958 5.71999ZM966.438 0.391991L967.277 -1.42326L965.957 -2.03411L964.969 -0.96541L966.438 0.391991ZM893.142 133H966.006V129H893.142V133ZM967.94 131.51L970.676 121.142L966.808 120.122L964.072 130.49L967.94 131.51ZM968.742 118.632H907.254V122.632H968.742V118.632ZM909.185 121.152L918.689 85.8722L914.827 84.8318L905.323 120.112L909.185 121.152ZM916.758 87.352H970.902V83.352H916.758V87.352ZM972.829 85.8873L975.709 75.5193L971.855 74.4487L968.975 84.8167L972.829 85.8873ZM973.782 72.984H919.494V76.984H973.782V72.984ZM921.426 75.5013L930.642 41.0853L926.778 40.0507L917.562 74.4667L921.426 75.5013ZM928.71 42.568H989.478V38.568H928.71V42.568ZM991.405 41.1033L994.285 30.7353L990.431 29.6647L987.551 40.0327L991.405 41.1033ZM992.358 28.2H920.214V32.2H992.358V28.2ZM918.282 29.6812L891.21 130.481L895.073 131.519L922.146 30.7188L918.282 29.6812ZM947.142 23.272H957.51V19.272H947.142V23.272ZM958.721 22.8639L979.169 7.31188L976.747 4.1281L956.299 19.6801L958.721 22.8639ZM978.797 3.90474L967.277 -1.42326L965.598 2.20724L977.118 7.53524L978.797 3.90474ZM964.969 -0.96541L945.673 19.9146L948.611 22.6294L967.907 1.74939L964.969 -0.96541ZM978.58 131L976.648 130.481L975.972 133H978.58V131ZM989.812 131V133H991.346L991.744 131.519L989.812 131ZM1011.7 49.496L1013.55 48.7387L1011.31 43.2512L1009.77 48.9773L1011.7 49.496ZM1033.73 103.352L1031.88 104.109L1032.39 105.352H1033.73V103.352ZM1034.31 103.352V105.352H1035.17L1035.76 104.727L1034.31 103.352ZM1085.43 49.352L1087.36 49.8699L1083.98 47.977L1085.43 49.352ZM1063.54 131L1061.61 130.482L1060.93 133H1063.54V131ZM1075.06 131V133H1076.59L1076.99 131.519L1075.06 131ZM1102.13 30.2L1104.06 30.7188L1104.74 28.2H1102.13V30.2ZM1089.46 30.2V28.2H1088.59L1088 28.8344L1089.46 30.2ZM1038.05 85.208L1036.19 85.9432L1037.35 88.8836L1039.51 86.5736L1038.05 85.208ZM1016.31 30.2L1018.17 29.4648L1017.67 28.2H1016.31V30.2ZM1005.65 30.2V28.2H1004.12L1003.72 29.6812L1005.65 30.2ZM978.58 133H989.812V129H978.58V133ZM991.744 131.519L1013.63 50.0147L1009.77 48.9773L987.88 130.481L991.744 131.519ZM1009.85 50.2533L1031.88 104.109L1035.58 102.595L1013.55 48.7387L1009.85 50.2533ZM1033.73 105.352H1034.31V101.352H1033.73V105.352ZM1035.76 104.727L1086.88 50.7269L1083.98 47.977L1032.86 101.977L1035.76 104.727ZM1083.5 48.8341L1061.61 130.482L1065.47 131.518L1087.36 49.8699L1083.5 48.8341ZM1063.54 133H1075.06V129H1063.54V133ZM1076.99 131.519L1104.06 30.7188L1100.2 29.6812L1073.13 130.481L1076.99 131.519ZM1102.13 28.2H1089.46V32.2H1102.13V28.2ZM1088 28.8344L1036.59 83.8424L1039.51 86.5736L1090.92 31.5656L1088 28.8344ZM1039.91 84.4728L1018.17 29.4648L1014.45 30.9352L1036.19 85.9432L1039.91 84.4728ZM1016.31 28.2H1005.65V32.2H1016.31V28.2ZM1003.72 29.6812L976.648 130.481L980.512 131.519L1007.58 30.7188L1003.72 29.6812ZM1129.63 131L1127.7 130.481L1127.02 133H1129.63V131ZM1215.45 111.848L1216.87 113.262L1216.88 113.252L1215.45 111.848ZM1220.35 43.592L1221.76 42.1778L1221.76 42.1719L1221.75 42.1661L1220.35 43.592ZM1156.7 30.2V28.2H1155.17L1154.77 29.6812L1156.7 30.2ZM1143.88 120.488L1141.95 119.969L1141.28 122.488H1143.88V120.488ZM1165.34 40.712V38.712H1163.81L1163.41 40.1925L1165.34 40.712ZM1210.99 50.936L1209.57 52.3502L1209.58 52.3596L1209.59 52.3689L1210.99 50.936ZM1129.63 133H1163.76V129H1129.63V133ZM1163.76 133C1185.64 133 1204.33 125.799 1216.87 113.262L1214.04 110.434C1202.38 122.089 1184.78 129 1163.76 129V133ZM1216.88 113.252C1227.48 102.503 1233.29 88.4593 1233.29 72.536H1229.29C1229.29 87.4286 1223.88 100.457 1214.03 110.444L1216.88 113.252ZM1233.29 72.536C1233.29 59.8484 1229.39 49.8077 1221.76 42.1778L1218.93 45.0062C1225.7 51.7763 1229.29 60.7435 1229.29 72.536H1233.29ZM1221.75 42.1661C1212.48 33.0467 1198.08 28.2 1181.04 28.2V32.2C1197.4 32.2 1210.65 36.8572 1218.95 45.0178L1221.75 42.1661ZM1181.04 28.2H1156.7V32.2H1181.04V28.2ZM1154.77 29.6812L1127.7 130.481L1131.56 131.519L1158.63 30.7188L1154.77 29.6812ZM1145.82 121.007L1167.27 41.2314L1163.41 40.1925L1141.95 119.969L1145.82 121.007ZM1165.34 42.712H1180.32V38.712H1165.34V42.712ZM1180.32 42.712C1193.4 42.712 1203.46 46.2318 1209.57 52.3502L1212.4 49.5218C1205.27 42.3922 1194.02 38.712 1180.32 38.712V42.712ZM1209.59 52.3689C1214.62 57.261 1217.48 64.2 1217.48 73.256H1221.48C1221.48 63.304 1218.3 55.267 1212.38 49.503L1209.59 52.3689ZM1217.48 73.256C1217.48 85.1246 1213.08 95.5554 1205.4 103.234L1208.23 106.062C1216.68 97.6126 1221.48 86.1554 1221.48 73.256H1217.48ZM1205.4 103.234C1195.6 113.028 1181.6 118.488 1165.2 118.488V122.488C1182.49 122.488 1197.57 116.716 1208.23 106.062L1205.4 103.234ZM1165.2 118.488H1143.88V122.488H1165.2V118.488ZM1284.92 134.872C1319.42 134.872 1345.68 104.324 1345.68 72.104H1341.68C1341.68 102.38 1316.95 130.872 1284.92 130.872V134.872ZM1345.68 72.104C1345.68 46.5325 1326.65 26.472 1299.47 26.472V30.472C1324.41 30.472 1341.68 48.7155 1341.68 72.104H1345.68ZM1299.47 26.472C1264.97 26.472 1238.72 57.0172 1238.72 89.096H1242.72C1242.72 58.9668 1267.43 30.472 1299.47 30.472V26.472ZM1238.72 89.096C1238.72 114.807 1257.74 134.872 1284.92 134.872V130.872C1259.98 130.872 1242.72 112.633 1242.72 89.096H1238.72ZM1285.64 120.36C1276.07 120.36 1268.36 116.918 1263.04 111.333C1257.71 105.735 1254.67 97.8606 1254.67 88.808H1250.67C1250.67 98.7634 1254.03 107.665 1260.15 114.091C1266.28 120.53 1275.06 124.36 1285.64 124.36V120.36ZM1254.67 88.808C1254.67 64.6137 1273.73 40.984 1298.75 40.984V36.984C1271.06 36.984 1250.67 62.8903 1250.67 88.808H1254.67ZM1298.75 40.984C1308.32 40.984 1316.03 44.4259 1321.35 50.0111C1326.68 55.6086 1329.72 63.4834 1329.72 72.536H1333.72C1333.72 62.5806 1330.36 53.6794 1324.24 47.2529C1318.11 40.8141 1309.33 36.984 1298.75 36.984V40.984ZM1329.72 72.536C1329.72 96.7303 1310.66 120.36 1285.64 120.36V124.36C1313.33 124.36 1333.72 98.4537 1333.72 72.536H1329.72ZM1394.65 75.272L1393.92 77.1348L1393.93 77.1395L1394.65 75.272ZM1424.89 51.512L1423.41 52.8587L1424.74 54.3259L1426.22 53.0011L1424.89 51.512ZM1433.24 44.024L1434.57 45.5131L1436.03 44.2092L1434.76 42.7244L1433.24 44.024ZM1388.02 84.92L1387.29 86.7799L1387.3 86.784L1388.02 84.92ZM1350.01 106.52L1351.55 105.252L1350.31 103.739L1348.77 104.946L1350.01 106.52ZM1341.37 113.288L1340.13 111.714L1338.62 112.9L1339.74 114.46L1341.37 113.288ZM1382.55 134.44C1404.65 134.44 1422.71 121.142 1422.71 101.912H1418.71C1418.71 118.106 1403.37 130.44 1382.55 130.44V134.44ZM1422.71 101.912C1422.71 94.8936 1420.3 89.3696 1415.55 84.7782C1410.89 80.2783 1404.07 76.742 1395.36 73.4045L1393.93 77.1395C1402.5 80.426 1408.71 83.7297 1412.77 87.6538C1416.73 91.4864 1418.71 95.9704 1418.71 101.912H1422.71ZM1395.37 73.4093C1387.44 70.3081 1382.12 67.8076 1378.79 65.1706C1377.15 63.8765 1376.05 62.5991 1375.36 61.267C1374.67 59.9464 1374.33 58.4706 1374.33 56.696H1370.33C1370.33 59.0254 1370.79 61.1496 1371.81 63.114C1372.83 65.0669 1374.34 66.7595 1376.31 68.3094C1380.17 71.3604 1386.01 74.0439 1393.92 77.1347L1395.37 73.4093ZM1374.33 56.696C1374.33 49.0026 1382.03 40.984 1396.52 40.984V36.984C1380.76 36.984 1370.33 45.9574 1370.33 56.696H1374.33ZM1396.52 40.984C1407.74 40.984 1416.42 45.1922 1423.41 52.8587L1426.36 50.1653C1418.66 41.7038 1408.91 36.984 1396.52 36.984V40.984ZM1426.22 53.0011L1434.57 45.5131L1431.9 42.5349L1423.55 50.0229L1426.22 53.0011ZM1434.76 42.7244C1426.73 33.3306 1413.78 26.76 1397.53 26.76V30.76C1412.67 30.76 1424.48 36.8614 1431.72 45.3236L1434.76 42.7244ZM1397.53 26.76C1375.13 26.76 1358.37 39.7789 1358.37 57.992H1362.37C1362.37 42.7971 1376.43 30.76 1397.53 30.76V26.76ZM1358.37 57.992C1358.37 65.1135 1360.88 70.5446 1365.89 75.0954C1370.77 79.5347 1377.98 83.0991 1387.29 86.7799L1388.76 83.0601C1379.49 79.3969 1372.88 76.0493 1368.58 72.1366C1364.4 68.3354 1362.37 63.9745 1362.37 57.992H1358.37ZM1387.3 86.784C1395.05 89.7973 1399.94 92.3567 1402.89 94.9828C1405.71 97.4848 1406.76 100.038 1406.76 103.352H1410.76C1410.76 98.8905 1409.22 95.2512 1405.55 91.9932C1402.02 88.8593 1396.55 86.0907 1388.75 83.056L1387.3 86.784ZM1406.76 103.352C1406.76 108.09 1404.41 112.243 1400.28 115.277C1396.13 118.328 1390.2 120.216 1383.27 120.216V124.216C1390.89 124.216 1397.69 122.144 1402.65 118.499C1407.63 114.837 1410.76 109.558 1410.76 103.352H1406.76ZM1383.27 120.216C1376.1 120.216 1370.22 118.931 1365.14 116.458C1360.05 113.983 1355.66 110.267 1351.55 105.252L1348.46 107.788C1352.85 113.141 1357.67 117.273 1363.39 120.054C1369.1 122.837 1375.61 124.216 1383.27 124.216V120.216ZM1348.77 104.946L1340.13 111.714L1342.6 114.862L1351.24 108.094L1348.77 104.946ZM1339.74 114.46C1348.81 126.995 1363.41 134.44 1382.55 134.44V130.44C1364.53 130.44 1351.2 123.485 1342.99 112.116L1339.74 114.46ZM1485.44 131L1483.51 130.482L1482.83 133H1485.44V131ZM1496.82 131V133H1498.35L1498.75 131.518L1496.82 131ZM1521.01 40.712V38.712H1519.47L1519.08 40.1944L1521.01 40.712ZM1554.99 40.712V42.712H1556.52L1556.92 41.2405L1554.99 40.712ZM1557.87 30.2L1559.8 30.7285L1560.49 28.2H1557.87V30.2ZM1478.53 30.2V28.2H1477L1476.6 29.6715L1478.53 30.2ZM1475.65 40.712L1473.72 40.1835L1473.03 42.712H1475.65V40.712ZM1509.63 40.712L1511.56 41.2296L1512.24 38.712H1509.63V40.712ZM1485.44 133H1496.82V129H1485.44V133ZM1498.75 131.518L1522.94 41.2296L1519.08 40.1944L1494.89 130.482L1498.75 131.518ZM1521.01 42.712H1554.99V38.712H1521.01V42.712ZM1556.92 41.2405L1559.8 30.7285L1555.94 29.6715L1553.06 40.1835L1556.92 41.2405ZM1557.87 28.2H1478.53V32.2H1557.87V28.2ZM1476.6 29.6715L1473.72 40.1835L1477.58 41.2405L1480.46 30.7285L1476.6 29.6715ZM1475.65 42.712H1509.63V38.712H1475.65V42.712ZM1507.7 40.1944L1483.51 130.482L1487.37 131.518L1511.56 41.2296L1507.7 40.1944ZM1618.67 120.056L1617.26 118.642L1618.67 120.056ZM1634.51 90.248L1636.44 90.7687L1636.44 90.7668L1634.51 90.248ZM1650.64 30.2L1652.57 30.7188L1653.25 28.2H1650.64V30.2ZM1639.26 30.2V28.2H1637.73L1637.33 29.6778L1639.26 30.2ZM1623.57 88.232L1621.64 87.7098L1621.63 87.7195L1621.63 87.7292L1623.57 88.232ZM1610.75 112.856L1612.15 114.286L1612.17 114.269L1612.18 114.251L1610.75 112.856ZM1563.38 87.656L1565.3 88.2054L1565.3 88.1875L1565.31 88.1695L1563.38 87.656ZM1578.64 30.2L1580.57 30.7135L1581.24 28.2H1578.64V30.2ZM1567.12 30.2V28.2H1565.58L1565.19 29.6885L1567.12 30.2ZM1552.72 84.632L1554.65 85.1673L1554.65 85.1554L1554.65 85.1435L1552.72 84.632ZM1587.28 134.584C1600.3 134.584 1611.48 130.077 1620.09 121.47L1617.26 118.642C1609.45 126.451 1599.31 130.584 1587.28 130.584V134.584ZM1620.09 121.47C1627.45 114.103 1632.92 103.823 1636.44 90.7687L1632.58 89.7273C1629.19 102.305 1624 111.897 1617.26 118.642L1620.09 121.47ZM1636.44 90.7668L1652.57 30.7188L1648.71 29.6812L1632.58 89.7292L1636.44 90.7668ZM1650.64 28.2H1639.26V32.2H1650.64V28.2ZM1637.33 29.6778L1621.64 87.7098L1625.5 88.7542L1641.19 30.7222L1637.33 29.6778ZM1621.63 87.7292C1618.82 98.5413 1614.22 106.423 1609.32 111.461L1612.18 114.251C1617.65 108.633 1622.55 100.099 1625.5 88.7348L1621.63 87.7292ZM1609.35 111.426C1603.4 117.248 1596.12 120.072 1588.29 120.072V124.072C1597.16 124.072 1605.43 120.848 1612.15 114.286L1609.35 111.426ZM1588.29 120.072C1579.72 120.072 1573.68 117.695 1569.79 114.013C1565.91 110.339 1563.94 105.145 1563.94 99.032H1559.94C1559.94 106.023 1562.21 112.349 1567.04 116.919C1571.86 121.481 1578.99 124.072 1588.29 124.072V120.072ZM1563.94 99.032C1563.94 94.8727 1564.49 91.0281 1565.3 88.2054L1561.45 87.1066C1560.53 90.3319 1559.94 94.5513 1559.94 99.032H1563.94ZM1565.31 88.1695L1580.57 30.7135L1576.71 29.6865L1561.44 87.1425L1565.31 88.1695ZM1578.64 28.2H1567.12V32.2H1578.64V28.2ZM1565.19 29.6885L1550.79 84.1205L1554.65 85.1435L1569.05 30.7115L1565.19 29.6885ZM1550.79 84.0967C1549.31 89.4484 1548.56 94.6683 1548.56 100.328H1552.56C1552.56 95.0437 1553.25 90.1836 1554.65 85.1673L1550.79 84.0967ZM1548.56 100.328C1548.56 110.222 1551.89 118.854 1558.54 124.999C1565.18 131.13 1574.89 134.584 1587.28 134.584V130.584C1575.62 130.584 1566.97 127.342 1561.26 122.061C1555.56 116.794 1552.56 109.298 1552.56 100.328H1548.56ZM1666.02 131L1664.09 130.482L1663.41 133H1666.02V131ZM1677.4 131V133H1678.93L1679.33 131.518L1677.4 131ZM1701.59 40.712V38.712H1700.05L1699.66 40.1944L1701.59 40.712ZM1735.57 40.712V42.712H1737.1L1737.5 41.2405L1735.57 40.712ZM1738.45 30.2L1740.38 30.7285L1741.07 28.2H1738.45V30.2ZM1659.11 30.2V28.2H1657.58L1657.18 29.6715L1659.11 30.2ZM1656.23 40.712L1654.3 40.1835L1653.61 42.712H1656.23V40.712ZM1690.21 40.712L1692.14 41.2296L1692.82 38.712H1690.21V40.712ZM1666.02 133H1677.4V129H1666.02V133ZM1679.33 131.518L1703.52 41.2296L1699.66 40.1944L1675.46 130.482L1679.33 131.518ZM1701.59 42.712H1735.57V38.712H1701.59V42.712ZM1737.5 41.2405L1740.38 30.7285L1736.52 29.6715L1733.64 40.1835L1737.5 41.2405ZM1738.45 28.2H1659.11V32.2H1738.45V28.2ZM1657.18 29.6715L1654.3 40.1835L1658.16 41.2405L1661.04 30.7285L1657.18 29.6715ZM1656.23 42.712H1690.21V38.712H1656.23V42.712ZM1688.28 40.1944L1664.09 130.482L1667.95 131.518L1692.14 41.2296L1688.28 40.1944ZM1770.69 134.872C1805.19 134.872 1831.44 104.324 1831.44 72.104H1827.44C1827.44 102.38 1802.72 130.872 1770.69 130.872V134.872ZM1831.44 72.104C1831.44 46.5325 1812.42 26.472 1785.24 26.472V30.472C1810.18 30.472 1827.44 48.7155 1827.44 72.104H1831.44ZM1785.24 26.472C1750.74 26.472 1724.48 57.0172 1724.48 89.096H1728.48C1728.48 58.9668 1753.2 30.472 1785.24 30.472V26.472ZM1724.48 89.096C1724.48 114.807 1743.51 134.872 1770.69 134.872V130.872C1745.75 130.872 1728.48 112.633 1728.48 89.096H1724.48ZM1771.41 120.36C1761.84 120.36 1754.13 116.918 1748.81 111.333C1743.48 105.735 1740.44 97.8606 1740.44 88.808H1736.44C1736.44 98.7634 1739.8 107.665 1745.92 114.091C1752.05 120.53 1760.83 124.36 1771.41 124.36V120.36ZM1740.44 88.808C1740.44 64.6137 1759.5 40.984 1784.52 40.984V36.984C1756.83 36.984 1736.44 62.8903 1736.44 88.808H1740.44ZM1784.52 40.984C1794.09 40.984 1801.8 44.4259 1807.12 50.0111C1812.45 55.6086 1815.49 63.4834 1815.49 72.536H1819.49C1819.49 62.5806 1816.13 53.6794 1810.01 47.2529C1803.88 40.8141 1795.1 36.984 1784.52 36.984V40.984ZM1815.49 72.536C1815.49 96.7303 1796.43 120.36 1771.41 120.36V124.36C1799.1 124.36 1819.49 98.4537 1819.49 72.536H1815.49ZM1830.71 131L1828.78 130.481L1828.1 133H1830.71V131ZM1842.09 131V133H1843.62L1844.02 131.518L1842.09 131ZM1852.6 91.832V89.832H1851.07L1850.67 91.3136L1852.6 91.832ZM1879.96 91.832L1881.74 90.9271L1881.19 89.832H1879.96V91.832ZM1899.83 131L1898.05 131.905L1898.6 133H1899.83V131ZM1912.94 131V133H1916.21L1914.71 130.085L1912.94 131ZM1892.2 90.68L1891.89 88.7042L1889.15 89.1331L1890.42 91.5947L1892.2 90.68ZM1922.58 72.248L1920.91 71.1474L1920.84 71.2568L1920.78 71.3748L1922.58 72.248ZM1927.05 51.368L1925.07 51.6449L1925.07 51.6771L1925.08 51.7091L1927.05 51.368ZM1857.78 30.2V28.2H1856.25L1855.85 29.6812L1857.78 30.2ZM1855.34 81.608L1853.41 81.0846L1852.72 83.608H1855.34V81.608ZM1866.42 40.712V38.712H1864.89L1864.49 40.1886L1866.42 40.712ZM1916.54 55.544L1914.54 55.6998L1914.54 55.7294L1914.55 55.759L1916.54 55.544ZM1912.5 69.656L1910.91 68.4472L1910.85 68.5292L1910.79 68.6172L1912.5 69.656ZM1830.71 133H1842.09V129H1830.71V133ZM1844.02 131.518L1854.53 92.3504L1850.67 91.3136L1840.16 130.482L1844.02 131.518ZM1852.6 93.832H1879.96V89.832H1852.6V93.832ZM1878.18 92.7369L1898.05 131.905L1901.61 130.095L1881.74 90.9271L1878.18 92.7369ZM1899.83 133H1912.94V129H1899.83V133ZM1914.71 130.085L1893.98 89.7653L1890.42 91.5947L1911.16 131.915L1914.71 130.085ZM1892.51 92.6558C1907.53 90.2999 1919.23 83.7411 1924.38 73.1212L1920.78 71.3748C1916.43 80.3389 1906.25 86.4521 1891.89 88.7042L1892.51 92.6558ZM1924.25 73.3486C1928.7 66.606 1930.4 59.0373 1929.02 51.0269L1925.08 51.7091C1926.28 58.6747 1924.82 65.218 1920.91 71.1474L1924.25 73.3486ZM1929.03 51.0911C1928.01 43.8158 1924.26 38.0135 1918.18 34.0823C1912.15 30.1889 1903.96 28.2 1894.07 28.2V32.2C1903.48 32.2 1910.84 34.0991 1916.01 37.4417C1921.12 40.7465 1924.21 45.5282 1925.07 51.6449L1929.03 51.0911ZM1894.07 28.2H1857.78V32.2H1894.07V28.2ZM1855.85 29.6812L1828.78 130.481L1832.64 131.519L1859.71 30.7188L1855.85 29.6812ZM1857.27 82.1314L1868.35 41.2354L1864.49 40.1886L1853.41 81.0846L1857.27 82.1314ZM1866.42 42.712H1893.5V38.712H1866.42V42.712ZM1893.5 42.712C1900.62 42.712 1905.76 44.0805 1909.14 46.3361C1912.44 48.5366 1914.23 51.6761 1914.54 55.6998L1918.53 55.3882C1918.12 50.1959 1915.73 45.9194 1911.36 43.0079C1907.08 40.1514 1901.06 38.712 1893.5 38.712V42.712ZM1914.55 55.759C1915.06 60.5409 1913.79 64.646 1910.91 68.4472L1914.1 70.8648C1917.55 66.3139 1919.16 61.2031 1918.52 55.329L1914.55 55.759ZM1910.79 68.6172C1906.87 75.077 1897.1 79.608 1882.7 79.608V83.608C1897.66 83.608 1909.21 78.923 1914.21 70.6948L1910.79 68.6172ZM1882.7 79.608H1855.34V83.608H1882.7V79.608ZM1926.3 131L1924.37 130.481L1923.69 133H1926.3V131ZM1937.67 131V133H1939.21L1939.61 131.519L1937.67 131ZM1964.75 30.2L1966.68 30.7188L1967.35 28.2H1964.75V30.2ZM1953.37 30.2V28.2H1951.84L1951.44 29.6812L1953.37 30.2ZM1926.3 133H1937.67V129H1926.3V133ZM1939.61 131.519L1966.68 30.7188L1962.81 29.6812L1935.74 130.481L1939.61 131.519ZM1964.75 28.2H1953.37V32.2H1964.75V28.2ZM1951.44 29.6812L1924.37 130.481L1928.23 131.519L1955.3 30.7188L1951.44 29.6812ZM1948.48 131L1946.85 129.831L1944.57 133H1948.48V131ZM1961 131V133H1962.03L1962.63 132.162L1961 131ZM1980.01 104.36V102.36H1978.98L1978.38 103.198L1980.01 104.36ZM2035.02 104.36L2036.99 104.019L2036.7 102.36H2035.02V104.36ZM2039.63 131L2037.66 131.341L2037.94 133H2039.63V131ZM2051.29 131V133H2053.69L2053.26 130.637L2051.29 131ZM2032.57 29.48L2034.54 29.1173L2034.24 27.48H2032.57V29.48ZM2021.63 29.48V27.48H2020.6L2020.01 28.3108L2021.63 29.48ZM1987.21 94.136L1985.58 92.9748L1983.33 96.136H1987.21V94.136ZM2024.08 42.44L2026.05 42.0943L2025.22 37.3904L2022.45 41.2788L2024.08 42.44ZM2033.15 94.136V96.136H2035.53L2035.12 93.7903L2033.15 94.136ZM1948.48 133H1961V129H1948.48V133ZM1962.63 132.162L1981.64 105.522L1978.38 103.198L1959.38 129.838L1962.63 132.162ZM1980.01 106.36H2035.02V102.36H1980.01V106.36ZM2033.05 104.701L2037.66 131.341L2041.6 130.659L2036.99 104.019L2033.05 104.701ZM2039.63 133H2051.29V129H2039.63V133ZM2053.26 130.637L2034.54 29.1173L2030.61 29.8427L2049.33 131.363L2053.26 130.637ZM2032.57 27.48H2021.63V31.48H2032.57V27.48ZM2020.01 28.3108L1946.85 129.831L1950.1 132.169L2023.25 30.6492L2020.01 28.3108ZM1988.84 95.2972L2025.7 43.6012L2022.45 41.2788L1985.58 92.9748L1988.84 95.2972ZM2022.11 42.7857L2031.18 94.4817L2035.12 93.7903L2026.05 42.0943L2022.11 42.7857ZM2033.15 92.136H1987.21V96.136H2033.15V92.136ZM2060.47 131L2058.54 130.481L2057.86 133H2060.47V131ZM2071.85 131V133H2073.38L2073.78 131.519L2071.85 131ZM2098.92 30.2L2100.85 30.7188L2101.53 28.2H2098.92V30.2ZM2087.54 30.2V28.2H2086.01L2085.61 29.6812L2087.54 30.2ZM2060.47 133H2071.85V129H2060.47V133ZM2073.78 131.519L2100.85 30.7188L2096.99 29.6812L2069.92 130.481L2073.78 131.519ZM2098.92 28.2H2087.54V32.2H2098.92V28.2ZM2085.61 29.6812L2058.54 130.481L2062.4 131.519L2089.47 30.7188L2085.61 29.6812ZM2143.42 75.272L2142.69 77.1348L2142.7 77.1395L2143.42 75.272ZM2173.66 51.512L2172.18 52.8587L2173.51 54.3259L2174.99 53.0011L2173.66 51.512ZM2182.01 44.024L2183.34 45.5131L2184.8 44.2092L2183.53 42.7244L2182.01 44.024ZM2136.79 84.92L2136.06 86.7799L2136.07 86.784L2136.79 84.92ZM2098.78 106.52L2100.32 105.252L2099.08 103.739L2097.54 104.946L2098.78 106.52ZM2090.14 113.288L2088.9 111.714L2087.39 112.9L2088.52 114.46L2090.14 113.288ZM2131.32 134.44C2153.42 134.44 2171.48 121.142 2171.48 101.912H2167.48C2167.48 118.106 2152.14 130.44 2131.32 130.44V134.44ZM2171.48 101.912C2171.48 94.8936 2169.07 89.3696 2164.32 84.7782C2159.67 80.2783 2152.84 76.742 2144.13 73.4045L2142.7 77.1395C2151.27 80.426 2157.48 83.7297 2161.54 87.6538C2165.5 91.4864 2167.48 95.9704 2167.48 101.912H2171.48ZM2144.15 73.4093C2136.21 70.3081 2130.9 67.8076 2127.56 65.1706C2125.92 63.8765 2124.82 62.5991 2124.13 61.267C2123.44 59.9464 2123.1 58.4706 2123.1 56.696H2119.1C2119.1 59.0254 2119.56 61.1496 2120.58 63.114C2121.6 65.0669 2123.12 66.7595 2125.08 68.3094C2128.94 71.3604 2134.78 74.0439 2142.69 77.1347L2144.15 73.4093ZM2123.1 56.696C2123.1 49.0026 2130.8 40.984 2145.29 40.984V36.984C2129.54 36.984 2119.1 45.9574 2119.1 56.696H2123.1ZM2145.29 40.984C2156.51 40.984 2165.2 45.1922 2172.18 52.8587L2175.14 50.1653C2167.43 41.7038 2157.69 36.984 2145.29 36.984V40.984ZM2174.99 53.0011L2183.34 45.5131L2180.67 42.5349L2172.32 50.0229L2174.99 53.0011ZM2183.53 42.7244C2175.5 33.3306 2162.55 26.76 2146.3 26.76V30.76C2161.44 30.76 2173.26 36.8614 2180.49 45.3236L2183.53 42.7244ZM2146.3 26.76C2123.9 26.76 2107.15 39.7789 2107.15 57.992H2111.15C2111.15 42.7971 2125.2 30.76 2146.3 30.76V26.76ZM2107.15 57.992C2107.15 65.1135 2109.66 70.5446 2114.66 75.0954C2119.54 79.5347 2126.75 83.0991 2136.06 86.7799L2137.53 83.0601C2128.26 79.3969 2121.65 76.0493 2117.35 72.1366C2113.17 68.3354 2111.15 63.9745 2111.15 57.992H2107.15ZM2136.07 86.784C2143.82 89.7973 2148.71 92.3567 2151.66 94.9828C2154.48 97.4848 2155.53 100.038 2155.53 103.352H2159.53C2159.53 98.8905 2157.99 95.2512 2154.32 91.9932C2150.8 88.8593 2145.32 86.0907 2137.52 83.056L2136.07 86.784ZM2155.53 103.352C2155.53 108.09 2153.18 112.243 2149.05 115.277C2144.9 118.328 2138.97 120.216 2132.04 120.216V124.216C2139.66 124.216 2146.47 122.144 2151.42 118.499C2156.41 114.837 2159.53 109.558 2159.53 103.352H2155.53ZM2132.04 120.216C2124.87 120.216 2118.99 118.931 2113.91 116.458C2108.82 113.983 2104.43 110.267 2100.32 105.252L2097.23 107.788C2101.62 113.141 2106.44 117.273 2112.16 120.054C2117.88 122.837 2124.38 124.216 2132.04 124.216V120.216ZM2097.54 104.946L2088.9 111.714L2091.37 114.862L2100.01 108.094L2097.54 104.946ZM2088.52 114.46C2097.58 126.995 2112.19 134.44 2131.32 134.44V130.44C2113.31 130.44 2099.98 123.485 2091.76 112.116L2088.52 114.46Z" fill="#454C4F" mask="url(#path-1-outside-1_954_221)"/>
</svg>
