<svg width="84" height="23" viewBox="0 0 84 23" fill="none" xmlns="http://www.w3.org/2000/svg">
<g clip-path="url(#clip0_975_115)">
<path d="M23.9523 0.320068H25.6127V22.8525H23.9523V0.320068Z" fill="#ED145B"/>
<path d="M6.34705 11.1033H14.4526V12.6483H6.34705V11.1033Z" fill="#ED145B"/>
<path d="M0.146301 0.320068V22.8526H1.80668V12.6485H1.80888V11.1033H1.80683V1.86499H19.0245V0.320068" fill="#ED145B"/>
<path d="M75.551 0.23291H62.3197V22.7655H63.9801V14.3639H63.9922V12.8192H63.9802V1.77828H75.4234C79.4471 1.77828 82.1932 3.6451 82.1932 7.21802V7.28261C82.1932 10.6299 79.383 12.8191 75.2316 12.8191H69.9949V14.3639H75.1358C79.798 14.3639 83.8539 11.9175 83.8539 7.18588V7.12159C83.8539 2.77598 80.4687 0.233058 75.5508 0.233058" fill="#ED145B"/>
<path d="M52.6594 12.8193L44.9075 0.147461H43.3108L29.503 22.8409H31.2274L44.0775 1.98244L50.7755 12.8192" fill="#ED145B"/>
<path d="M55.2099 16.9888H53.3525L56.9698 22.8408H58.7896" fill="#ED145B"/>
</g>
<defs>
<clipPath id="clip0_975_115">
<rect width="84" height="23" fill="white"/>
</clipPath>
</defs>
</svg>
