<svg width="144" height="39" viewBox="0 0 144 39" fill="none" xmlns="http://www.w3.org/2000/svg">
<g clip-path="url(#clip0_954_60)">
<path d="M41.0611 0.542603H43.9075V38.7497H41.0611V0.542603Z" fill="#ED145B"/>
<path d="M10.8806 18.8274H24.7759V21.4473H10.8806V18.8274Z" fill="#ED145B"/>
<path d="M0.250778 0.542603V38.75H3.09714V21.4473H3.10091V18.8272H3.09739V3.16226H32.6133V0.542603" fill="#ED145B"/>
<path d="M129.516 0.39502H106.834V38.6024H109.68V24.3562H109.701V21.7371H109.68V3.01542H129.297C136.195 3.01542 140.903 6.18091 140.903 12.2393V12.3489C140.903 18.0247 136.085 21.7368 128.968 21.7368H119.991V24.3562H128.804C136.797 24.3562 143.749 20.2081 143.749 12.1848V12.0758C143.749 4.70718 137.946 0.39527 129.516 0.39527" fill="#ED145B"/>
<path d="M90.2732 21.7371L76.9843 0.25H74.247L50.5765 38.7302H53.5327L75.5613 3.36148L87.0436 21.7368" fill="#ED145B"/>
<path d="M94.6455 28.8069H91.4614L97.6624 38.7299H100.782" fill="#ED145B"/>
</g>
<defs>
<clipPath id="clip0_954_60">
<rect width="144" height="39" fill="white"/>
</clipPath>
</defs>
</svg>
