<svg width="19" height="19" viewBox="0 0 19 19" fill="none" xmlns="http://www.w3.org/2000/svg">
<mask id="path-1-outside-1_975_64" maskUnits="userSpaceOnUse" x="-1.78766" y="-0.286377" width="22" height="20" fill="black">
<rect fill="white" x="-1.78766" y="-0.286377" width="22" height="20"/>
<path d="M7.82593 8.35762H0.129933V11.0216H7.82593V18.6436H10.5639V11.0216H18.2599V8.35762H10.5639V0.735622H7.82593V8.35762Z"/>
</mask>
<path d="M7.82593 8.35762V9.35762H8.82593V8.35762H7.82593ZM0.129933 8.35762V7.35762H-0.870067V8.35762H0.129933ZM0.129933 11.0216H-0.870067V12.0216H0.129933V11.0216ZM7.82593 11.0216H8.82593V10.0216H7.82593V11.0216ZM7.82593 18.6436H6.82593V19.6436H7.82593V18.6436ZM10.5639 18.6436V19.6436H11.5639V18.6436H10.5639ZM10.5639 11.0216V10.0216H9.56393V11.0216H10.5639ZM18.2599 11.0216V12.0216H19.2599V11.0216H18.2599ZM18.2599 8.35762H19.2599V7.35762H18.2599V8.35762ZM10.5639 8.35762H9.56393V9.35762H10.5639V8.35762ZM10.5639 0.735621H11.5639V-0.264379H10.5639V0.735621ZM7.82593 0.735621V-0.264379H6.82593V0.735621H7.82593ZM7.82593 7.35762H0.129933V9.35762H7.82593V7.35762ZM-0.870067 8.35762V11.0216H1.12993V8.35762H-0.870067ZM0.129933 12.0216H7.82593V10.0216H0.129933V12.0216ZM6.82593 11.0216V18.6436H8.82593V11.0216H6.82593ZM7.82593 19.6436H10.5639V17.6436H7.82593V19.6436ZM11.5639 18.6436V11.0216H9.56393V18.6436H11.5639ZM10.5639 12.0216H18.2599V10.0216H10.5639V12.0216ZM19.2599 11.0216V8.35762H17.2599V11.0216H19.2599ZM18.2599 7.35762H10.5639V9.35762H18.2599V7.35762ZM11.5639 8.35762V0.735621H9.56393V8.35762H11.5639ZM10.5639 -0.264379H7.82593V1.73562H10.5639V-0.264379ZM6.82593 0.735621V8.35762H8.82593V0.735621H6.82593Z" fill="#F80D5A" mask="url(#path-1-outside-1_975_64)"/>
</svg>
