<svg width="431" height="105" viewBox="0 0 431 105" fill="none" xmlns="http://www.w3.org/2000/svg">
<mask id="path-1-outside-1_954_222" maskUnits="userSpaceOnUse" x="-21" y="-2" width="454" height="109" fill="black">
<rect fill="white" x="-21" y="-2" width="454" height="109"/>
<path d="M-1.96 27.4C-1.96 18.184 6.392 10.984 19.496 10.984C29.864 10.984 39.224 14.296 48.584 21.928L55.208 13.144C44.984 4.93599 34.472 0.759995 19.784 0.759995C0.632 0.759995 -13.336 12.28 -13.336 28.408C-13.336 45.112 -2.68 52.6 20.504 57.64C41.672 62.104 46.712 67.432 46.712 76.936C46.712 87.16 37.784 94.216 24.248 94.216C10.28 94.216 0.200002 89.464 -10.312 79.96L-17.368 88.312C-5.272 99.112 7.832 104.44 23.816 104.44C43.832 104.44 58.232 93.208 58.232 75.784C58.232 60.232 47.864 52.024 25.4 47.128C3.224 42.376 -1.96 37.048 -1.96 27.4ZM113.477 46.264L156.677 2.19999H141.989L84.1014 62.392V2.19999H72.7254V103H84.1014V75.928L105.557 54.184L144.293 103H158.549L113.477 46.264ZM168.593 2.19999V103H179.969V2.19999H168.593ZM200.852 103H268.964V92.488H212.228V2.19999H200.852V103ZM281.368 103H349.48V92.488H292.744V2.19999H281.368V103ZM370.668 27.4C370.668 18.184 379.02 10.984 392.124 10.984C402.492 10.984 411.852 14.296 421.212 21.928L427.836 13.144C417.612 4.93599 407.1 0.759995 392.412 0.759995C373.26 0.759995 359.292 12.28 359.292 28.408C359.292 45.112 369.948 52.6 393.132 57.64C414.3 62.104 419.34 67.432 419.34 76.936C419.34 87.16 410.412 94.216 396.876 94.216C382.908 94.216 372.828 89.464 362.316 79.96L355.26 88.312C367.356 99.112 380.46 104.44 396.444 104.44C416.46 104.44 430.86 93.208 430.86 75.784C430.86 60.232 420.492 52.024 398.028 47.128C375.852 42.376 370.668 37.048 370.668 27.4Z"/>
</mask>
<path d="M48.584 21.928L47.3201 23.478L48.9301 24.7908L50.1809 23.1322L48.584 21.928ZM55.208 13.144L56.8049 14.3482L57.9731 12.7991L56.4601 11.5844L55.208 13.144ZM20.504 57.64L20.0791 59.5944L20.0913 59.597L20.504 57.64ZM-10.312 79.96L-8.97071 78.4764L-10.505 77.0893L-11.8398 78.6693L-10.312 79.96ZM-17.368 88.312L-18.8958 87.0213L-20.1516 88.5078L-18.7 89.8039L-17.368 88.312ZM25.4 47.128L25.8259 45.1739L25.8191 45.1724L25.4 47.128ZM0.0400009 27.4C0.0400009 19.6977 7.0373 12.984 19.496 12.984V8.98399C5.7467 8.98399 -3.96 16.6703 -3.96 27.4H0.0400009ZM19.496 12.984C29.3672 12.984 38.2879 16.1133 47.3201 23.478L49.8479 20.378C40.1601 12.4787 30.3608 8.98399 19.496 8.98399V12.984ZM50.1809 23.1322L56.8049 14.3482L53.6112 11.9398L46.9872 20.7238L50.1809 23.1322ZM56.4601 11.5844C45.8983 3.10526 34.949 -1.24001 19.784 -1.24001V2.75999C33.995 2.75999 44.0697 6.76673 53.9559 14.7036L56.4601 11.5844ZM19.784 -1.24001C-0.111948 -1.24001 -15.336 10.8464 -15.336 28.408H-11.336C-11.336 13.7136 1.37595 2.75999 19.784 2.75999V-1.24001ZM-15.336 28.408C-15.336 37.2651 -12.4718 43.9158 -6.38299 48.9406C-0.436783 53.8476 8.41813 57.0593 20.0791 59.5943L20.9289 55.6856C9.40587 53.1806 1.34078 50.1284 -3.83701 45.8554C-8.87224 41.7002 -11.336 36.2548 -11.336 28.408H-15.336ZM20.0913 59.597C30.6371 61.8209 36.791 64.1973 40.3081 66.9689C42.0217 68.3192 43.0912 69.7512 43.7508 71.316C44.4187 72.9007 44.712 74.7309 44.712 76.936H48.712C48.712 74.3891 48.3753 71.9893 47.4367 69.7625C46.4898 67.5158 44.9763 65.5548 42.7839 63.8271C38.489 60.4427 31.5389 57.9231 20.9167 55.683L20.0913 59.597ZM44.712 76.936C44.712 81.4075 42.7838 85.1523 39.3306 87.8293C35.8383 90.5367 30.6872 92.216 24.248 92.216V96.216C31.3449 96.216 37.4257 94.3673 41.7814 90.9907C46.1762 87.5837 48.712 82.6885 48.712 76.936H44.712ZM24.248 92.216C10.8711 92.216 1.25121 87.7182 -8.97071 78.4764L-11.6533 81.4436C-0.851208 91.2098 9.68887 96.216 24.248 96.216V92.216ZM-11.8398 78.6693L-18.8958 87.0213L-15.8402 89.6027L-8.78423 81.2507L-11.8398 78.6693ZM-18.7 89.8039C-6.26336 100.908 7.30706 106.44 23.816 106.44V102.44C8.35695 102.44 -4.28063 97.316 -16.036 86.8201L-18.7 89.8039ZM23.816 106.44C34.183 106.44 43.2644 103.531 49.7955 98.1947C56.3617 92.8294 60.232 85.0972 60.232 75.784H56.232C56.232 83.8948 52.9023 90.4906 47.2645 95.0973C41.5916 99.7327 33.465 102.44 23.816 102.44V106.44ZM60.232 75.784C60.232 67.4853 57.4291 60.9655 51.5382 55.9386C45.7618 51.0094 37.1661 47.6455 25.8259 45.1739L24.9741 49.0821C36.0979 51.5065 43.9182 54.6946 48.9418 58.9814C53.8509 63.1705 56.232 68.5307 56.232 75.784H60.232ZM25.8191 45.1724C14.7603 42.8027 8.30949 40.3527 4.6241 37.5153C2.82846 36.1328 1.71604 34.6764 1.03302 33.0925C0.341646 31.4893 0.0400009 29.6386 0.0400009 27.4H-3.96C-3.96 29.9854 -3.61364 32.4187 -2.64001 34.6765C-1.65804 36.9536 -0.0884609 38.9352 2.1839 40.6847C6.63451 44.1113 13.8637 46.7013 24.9809 49.0836L25.8191 45.1724ZM113.477 46.264L112.049 44.8639L110.813 46.1251L111.911 47.508L113.477 46.264ZM156.677 2.19999L158.106 3.60014L161.439 0.199993H156.677V2.19999ZM141.989 2.19999V0.199993H141.138L140.548 0.813638L141.989 2.19999ZM84.1014 62.392H82.1014V67.3569L85.5429 63.7784L84.1014 62.392ZM84.1014 2.19999H86.1014V0.199993H84.1014V2.19999ZM72.7254 2.19999V0.199993H70.7254V2.19999H72.7254ZM72.7254 103H70.7254V105H72.7254V103ZM84.1014 103V105H86.1014V103H84.1014ZM84.1014 75.928L82.6778 74.5232L82.1014 75.1074V75.928H84.1014ZM105.557 54.184L107.124 52.9408L105.72 51.1716L104.134 52.7792L105.557 54.184ZM144.293 103L142.727 104.243L143.327 105H144.293V103ZM158.549 103V105H162.693L160.115 101.756L158.549 103ZM114.906 47.6641L158.106 3.60014L155.249 0.79985L112.049 44.8639L114.906 47.6641ZM156.677 0.199993H141.989V4.19999H156.677V0.199993ZM140.548 0.813638L82.6598 61.0056L85.5429 63.7784L143.431 3.58635L140.548 0.813638ZM86.1014 62.392V2.19999H82.1014V62.392H86.1014ZM84.1014 0.199993H72.7254V4.19999H84.1014V0.199993ZM70.7254 2.19999V103H74.7254V2.19999H70.7254ZM72.7254 105H84.1014V101H72.7254V105ZM86.1014 103V75.928H82.1014V103H86.1014ZM85.525 77.3328L106.981 55.5888L104.134 52.7792L82.6778 74.5232L85.525 77.3328ZM103.991 55.4272L142.727 104.243L145.86 101.757L107.124 52.9408L103.991 55.4272ZM144.293 105H158.549V101H144.293V105ZM160.115 101.756L115.043 45.0199L111.911 47.508L156.983 104.244L160.115 101.756ZM168.593 2.19999V0.199993H166.593V2.19999H168.593ZM168.593 103H166.593V105H168.593V103ZM179.969 103V105H181.969V103H179.969ZM179.969 2.19999H181.969V0.199993H179.969V2.19999ZM166.593 2.19999V103H170.593V2.19999H166.593ZM168.593 105H179.969V101H168.593V105ZM181.969 103V2.19999H177.969V103H181.969ZM179.969 0.199993H168.593V4.19999H179.969V0.199993ZM200.852 103H198.852V105H200.852V103ZM268.964 103V105H270.964V103H268.964ZM268.964 92.488H270.964V90.488H268.964V92.488ZM212.228 92.488H210.228V94.488H212.228V92.488ZM212.228 2.19999H214.228V0.199993H212.228V2.19999ZM200.852 2.19999V0.199993H198.852V2.19999H200.852ZM200.852 105H268.964V101H200.852V105ZM270.964 103V92.488H266.964V103H270.964ZM268.964 90.488H212.228V94.488H268.964V90.488ZM214.228 92.488V2.19999H210.228V92.488H214.228ZM212.228 0.199993H200.852V4.19999H212.228V0.199993ZM198.852 2.19999V103H202.852V2.19999H198.852ZM281.368 103H279.368V105H281.368V103ZM349.48 103V105H351.48V103H349.48ZM349.48 92.488H351.48V90.488H349.48V92.488ZM292.744 92.488H290.744V94.488H292.744V92.488ZM292.744 2.19999H294.744V0.199993H292.744V2.19999ZM281.368 2.19999V0.199993H279.368V2.19999H281.368ZM281.368 105H349.48V101H281.368V105ZM351.48 103V92.488H347.48V103H351.48ZM349.48 90.488H292.744V94.488H349.48V90.488ZM294.744 92.488V2.19999H290.744V92.488H294.744ZM292.744 0.199993H281.368V4.19999H292.744V0.199993ZM279.368 2.19999V103H283.368V2.19999H279.368ZM421.212 21.928L419.948 23.478L421.558 24.7908L422.809 23.1322L421.212 21.928ZM427.836 13.144L429.433 14.3482L430.601 12.7991L429.088 11.5844L427.836 13.144ZM393.132 57.64L392.707 59.5944L392.719 59.597L393.132 57.64ZM362.316 79.96L363.657 78.4764L362.123 77.0893L360.788 78.6693L362.316 79.96ZM355.26 88.312L353.732 87.0213L352.477 88.5078L353.928 89.8039L355.26 88.312ZM398.028 47.128L398.454 45.1739L398.447 45.1724L398.028 47.128ZM372.668 27.4C372.668 19.6977 379.665 12.984 392.124 12.984V8.98399C378.375 8.98399 368.668 16.6703 368.668 27.4H372.668ZM392.124 12.984C401.995 12.984 410.916 16.1133 419.948 23.478L422.476 20.378C412.788 12.4787 402.989 8.98399 392.124 8.98399V12.984ZM422.809 23.1322L429.433 14.3482L426.239 11.9398L419.615 20.7238L422.809 23.1322ZM429.088 11.5844C418.526 3.10526 407.577 -1.24001 392.412 -1.24001V2.75999C406.623 2.75999 416.698 6.76673 426.584 14.7036L429.088 11.5844ZM392.412 -1.24001C372.516 -1.24001 357.292 10.8464 357.292 28.408H361.292C361.292 13.7136 374.004 2.75999 392.412 2.75999V-1.24001ZM357.292 28.408C357.292 37.2651 360.156 43.9158 366.245 48.9406C372.191 53.8476 381.046 57.0593 392.707 59.5943L393.557 55.6856C382.034 53.1806 373.969 50.1284 368.791 45.8554C363.756 41.7002 361.292 36.2548 361.292 28.408H357.292ZM392.719 59.597C403.265 61.8209 409.419 64.1973 412.936 66.9689C414.65 68.3192 415.719 69.7512 416.379 71.316C417.047 72.9007 417.34 74.7309 417.34 76.936H421.34C421.34 74.3891 421.003 71.9893 420.065 69.7625C419.118 67.5158 417.604 65.5548 415.412 63.8271C411.117 60.4427 404.167 57.9231 393.545 55.683L392.719 59.597ZM417.34 76.936C417.34 81.4075 415.412 85.1523 411.959 87.8293C408.466 90.5367 403.315 92.216 396.876 92.216V96.216C403.973 96.216 410.054 94.3673 414.409 90.9907C418.804 87.5837 421.34 82.6885 421.34 76.936H417.34ZM396.876 92.216C383.499 92.216 373.879 87.7182 363.657 78.4764L360.975 81.4436C371.777 91.2098 382.317 96.216 396.876 96.216V92.216ZM360.788 78.6693L353.732 87.0213L356.788 89.6027L363.844 81.2507L360.788 78.6693ZM353.928 89.8039C366.365 100.908 379.935 106.44 396.444 106.44V102.44C380.985 102.44 368.347 97.316 356.592 86.8201L353.928 89.8039ZM396.444 106.44C406.811 106.44 415.893 103.531 422.424 98.1947C428.99 92.8294 432.86 85.0972 432.86 75.784H428.86C428.86 83.8948 425.53 90.4906 419.893 95.0973C414.22 99.7327 406.093 102.44 396.444 102.44V106.44ZM432.86 75.784C432.86 67.4853 430.057 60.9655 424.166 55.9386C418.39 51.0094 409.794 47.6455 398.454 45.1739L397.602 49.0821C408.726 51.5065 416.546 54.6946 421.57 58.9814C426.479 63.1705 428.86 68.5307 428.86 75.784H432.86ZM398.447 45.1724C387.388 42.8027 380.938 40.3527 377.252 37.5153C375.457 36.1328 374.344 34.6764 373.661 33.0925C372.97 31.4893 372.668 29.6386 372.668 27.4H368.668C368.668 29.9854 369.014 32.4187 369.988 34.6765C370.97 36.9536 372.54 38.9352 374.812 40.6847C379.263 44.1113 386.492 46.7013 397.609 49.0836L398.447 45.1724Z" fill="#454C4F" mask="url(#path-1-outside-1_954_222)"/>
</svg>
